<svg width="9900" height="9545" viewBox="0 0 9900 9545" fill="none" xmlns="http://www.w3.org/2000/svg">
<rect width="9900" height="9545" fill="#B5C9FD"/>
<rect x="2329" y="2631" width="4496" height="4496" rx="50" fill="#2C69C6" fill-opacity="0.68"/>
<path d="M2469 3878.86V4141H3512.85V4009.93V3878.86H2990.92H2469Z" fill="#151517" fill-opacity="0.65"/>
<path d="M3654 3644L3512.85 3878.86V4009.93V4141L3654 3940.74V3644Z" fill="#151517" fill-opacity="0.65"/>
<path d="M2626.69 3644L2466 3873H3507.36L3648 3644H2626.69Z" fill="black" fill-opacity="0.67"/>
<rect x="5597.8" y="5929.13" width="250.87" height="629.419" rx="125.435" transform="rotate(26.1349 5597.8 5929.13)" fill="#D3D3D3"/>
<rect width="154.898" height="99.5011" rx="49.7506" transform="matrix(0.897759 0.440486 0.440486 -0.897759 5628.4 5970.49)" fill="#BE4E4E"/>
<path d="M5450.69 6419.16L5470.49 6429.33L5467.07 6436L5416.47 6410.03L5426.05 6391.37C5428.89 6385.83 5432.53 6382.22 5436.96 6380.55C5441.41 6378.85 5445.96 6379.19 5450.61 6381.58C5455.52 6384.1 5458.52 6387.59 5459.6 6392.04C5460.68 6396.45 5459.74 6401.52 5456.8 6407.24L5450.69 6419.16ZM5445.23 6416.36L5451.38 6404.37C5453.22 6400.8 5453.79 6397.64 5453.09 6394.88C5452.38 6392.12 5450.43 6389.92 5447.26 6388.29C5444.25 6386.74 5441.35 6386.46 5438.57 6387.43C5435.78 6388.4 5433.51 6390.52 5431.74 6393.8L5425.39 6406.17L5445.23 6416.36ZM5498.05 6377.35C5495.44 6382.45 5491.64 6385.74 5486.66 6387.22C5481.66 6388.69 5476.36 6387.99 5470.75 6385.11L5469.57 6384.51C5465.84 6382.59 5462.88 6380.18 5460.69 6377.27C5458.48 6374.32 5457.21 6371.15 5456.87 6367.76C5456.53 6364.33 5457.12 6361.12 5458.65 6358.13C5461.16 6353.25 5464.72 6350.27 5469.33 6349.21C5473.95 6348.16 5479.25 6349.17 5485.25 6352.25L5487.93 6353.62L5474.85 6379.09C5478.61 6380.9 5482.16 6381.37 5485.51 6380.48C5488.85 6379.56 5491.34 6377.5 5492.99 6374.31C5494.15 6372.04 5494.67 6369.88 5494.56 6367.83C5494.44 6365.77 5493.92 6363.77 5493 6361.8L5498.07 6359.44C5501.29 6365.08 5501.29 6371.05 5498.05 6377.35ZM5463.94 6360.84C5462.6 6363.44 5462.44 6366.1 5463.43 6368.84C5464.4 6371.56 5466.49 6374.01 5469.68 6376.17L5479.35 6357.34L5478.86 6357.09C5475.5 6355.6 5472.52 6355.18 5469.93 6355.84C5467.31 6356.49 5465.31 6358.16 5463.94 6360.84ZM5466.49 6322.16L5475.6 6326.83L5479.2 6319.81L5484.17 6322.36L5480.57 6329.38L5503.89 6341.35C5505.39 6342.13 5506.69 6342.4 5507.77 6342.16C5508.84 6341.92 5509.75 6341.04 5510.53 6339.54C5510.91 6338.79 5511.29 6337.7 5511.68 6336.26L5516.89 6338.94C5516.49 6340.87 5515.88 6342.63 5515.05 6344.23C5513.58 6347.1 5511.6 6348.82 5509.11 6349.39C5506.63 6349.96 5503.78 6349.42 5500.59 6347.78L5477.27 6335.81L5473.75 6342.66L5468.78 6340.11L5472.3 6333.26L5463.19 6328.59L5466.49 6322.16ZM5498.17 6297.06C5497.51 6297.95 5496.89 6298.96 5496.3 6300.09C5494.14 6304.31 5494.47 6308.09 5497.29 6311.44L5523.97 6325.14L5520.67 6331.57L5483.07 6312.27L5486.28 6306.02L5490.68 6308.14C5488.4 6304.31 5488.26 6300.46 5490.24 6296.59C5490.89 6295.34 5491.54 6294.47 5492.19 6293.99L5498.17 6297.06ZM5512.68 6300.02C5508.99 6298.13 5506.05 6295.71 5503.84 6292.77C5501.65 6289.8 5500.41 6286.62 5500.13 6283.22C5499.87 6279.81 5500.59 6276.44 5502.29 6273.13C5504.91 6268.01 5508.81 6264.79 5513.97 6263.45C5519.15 6262.1 5524.67 6262.93 5530.56 6265.95L5531.01 6266.19C5534.67 6268.06 5537.6 6270.46 5539.79 6273.37C5541.97 6276.25 5543.2 6279.41 5543.48 6282.86C5543.77 6286.29 5543.05 6289.69 5541.31 6293.08C5538.7 6298.17 5534.8 6301.4 5529.63 6302.75C5524.47 6304.08 5518.97 6303.25 5513.13 6300.26L5512.68 6300.02ZM5516.76 6293.95C5520.93 6296.09 5524.77 6296.85 5528.28 6296.22C5531.81 6295.57 5534.4 6293.63 5536.07 6290.38C5537.74 6287.12 5537.8 6283.87 5536.24 6280.64C5534.65 6277.39 5531.56 6274.59 5526.95 6272.22C5522.82 6270.11 5518.98 6269.38 5515.42 6270.04C5511.85 6270.66 5509.23 6272.6 5507.57 6275.84C5505.94 6279.02 5505.89 6282.22 5507.41 6285.47C5508.94 6288.71 5512.05 6291.54 5516.76 6293.95ZM5557.12 6260.57L5553.82 6267L5500.44 6239.6L5503.74 6233.17L5557.12 6260.57ZM5571.12 6235.01C5568.5 6240.1 5564.71 6243.39 5559.73 6244.88C5554.73 6246.35 5549.43 6245.65 5543.82 6242.77L5542.64 6242.16C5538.91 6240.25 5535.95 6237.84 5533.75 6234.93C5531.55 6231.98 5530.28 6228.81 5529.94 6225.42C5529.59 6221.99 5530.19 6218.78 5531.72 6215.79C5534.23 6210.9 5537.79 6207.93 5542.4 6206.87C5547.01 6205.81 5552.32 6206.83 5558.32 6209.91L5560.99 6211.28L5547.92 6236.75C5551.67 6238.56 5555.23 6239.03 5558.58 6238.14C5561.92 6237.22 5564.41 6235.16 5566.05 6231.97C5567.22 6229.7 5567.74 6227.53 5567.62 6225.48C5567.5 6223.43 5566.98 6221.42 5566.06 6219.46L5571.14 6217.1C5574.36 6222.74 5574.36 6228.71 5571.12 6235.01ZM5537 6218.5C5535.67 6221.1 5535.5 6223.76 5536.5 6226.5C5537.47 6229.22 5539.55 6231.67 5542.74 6233.83L5552.41 6215L5551.93 6214.75C5548.56 6213.26 5545.59 6212.84 5542.99 6213.5C5540.38 6214.15 5538.38 6215.82 5537 6218.5ZM5589.99 6187.39C5591.64 6191.4 5591.23 6195.83 5588.75 6200.67C5586.69 6204.68 5583.96 6207.14 5580.56 6208.06C5577.15 6208.95 5573.16 6208.23 5568.58 6205.91L5544.12 6193.35L5547.42 6186.92L5571.71 6199.39C5577.41 6202.32 5581.45 6201.46 5583.82 6196.83C5586.35 6191.92 5586.19 6187.71 5583.36 6184.21L5556.01 6170.17L5559.31 6163.74L5596.92 6183.04L5593.78 6189.16L5589.99 6187.39ZM5567.45 6147.9L5571.71 6149.86C5569.88 6145.44 5570.17 6140.89 5572.57 6136.21C5575.27 6130.95 5579.12 6128.41 5584.13 6128.58C5582.96 6126.4 5582.34 6124.03 5582.25 6121.46C5582.17 6118.88 5582.83 6116.22 5584.24 6113.48C5588.47 6105.24 5594.99 6103.28 5603.79 6107.63L5628.99 6120.56L5625.69 6126.99L5600.88 6114.25C5598.19 6112.87 5595.87 6112.46 5593.92 6113.01C5591.95 6113.55 5590.21 6115.26 5588.73 6118.16C5587.5 6120.55 5587.2 6122.9 5587.83 6125.21C5588.44 6127.51 5589.88 6129.41 5592.16 6130.9L5617.11 6143.71L5613.79 6150.17L5589.15 6137.52C5583.68 6134.71 5579.58 6135.99 5576.83 6141.34C5574.67 6145.56 5574.98 6149.36 5577.77 6152.76L5605.23 6166.85L5601.93 6173.28L5564.33 6153.98L5567.45 6147.9ZM5561.93 6332.51L5565.37 6325.8L5601.2 6344.19C5606.04 6346.68 5609.08 6350.08 5610.31 6354.4C5611.56 6358.7 5610.94 6363.27 5608.46 6368.11C5605.88 6373.14 5602.58 6376.4 5598.57 6377.88C5594.56 6379.36 5590.24 6378.91 5585.6 6376.54L5589.03 6369.86C5591.92 6371.35 5594.59 6371.72 5597.02 6370.98C5599.46 6370.21 5601.45 6368.32 5603 6365.31C5604.42 6362.56 5604.69 6359.89 5603.82 6357.3C5602.96 6354.7 5600.97 6352.58 5597.86 6350.95L5561.93 6332.51ZM5629.99 6326.17C5627.37 6331.27 5623.57 6334.56 5618.6 6336.04C5613.6 6337.51 5608.29 6336.81 5602.69 6333.93L5601.5 6333.33C5597.77 6331.41 5594.81 6329 5592.62 6326.09C5590.41 6323.14 5589.14 6319.97 5588.81 6316.58C5588.46 6313.15 5589.05 6309.94 5590.59 6306.95C5593.09 6302.06 5596.66 6299.09 5601.27 6298.03C5605.88 6296.98 5611.18 6297.99 5617.19 6301.07L5619.86 6302.44L5606.79 6327.91C5610.54 6329.72 5614.09 6330.19 5617.45 6329.3C5620.79 6328.38 5623.28 6326.32 5624.92 6323.13C5626.08 6320.86 5626.61 6318.7 5626.49 6316.64C5626.37 6314.59 5625.85 6312.58 5624.93 6310.62L5630 6308.26C5633.23 6313.9 5633.22 6319.87 5629.99 6326.17ZM5595.87 6309.66C5594.54 6312.26 5594.37 6314.92 5595.36 6317.66C5596.34 6320.38 5598.42 6322.83 5601.61 6324.99L5611.28 6306.16L5610.79 6305.91C5607.43 6304.42 5604.45 6304 5601.86 6304.66C5599.24 6305.31 5597.25 6306.98 5595.87 6309.66ZM5644.24 6296.69L5640.94 6303.12L5587.56 6275.72L5590.86 6269.29L5644.24 6296.69ZM5653.12 6279.38L5649.82 6285.81L5596.45 6258.41L5599.75 6251.98L5653.12 6279.38ZM5655.32 6251.93L5631.63 6228.7L5635.16 6221.82L5670.81 6259.22C5675.86 6264.77 5677.08 6270.09 5674.46 6275.19L5673.74 6276.35L5672.05 6278.52L5666.84 6275.84L5667.87 6274.18C5668.99 6272 5669.42 6270.08 5669.16 6268.42C5668.91 6266.74 5667.81 6264.91 5665.88 6262.92L5662.79 6259.53L5618.72 6253.86L5622.32 6246.84L5655.32 6251.93Z" fill="#8A8383"/>
<path d="M2986.38 5222.41V4993.63C2966.37 4953.72 3170.37 4952.53 3156.3 4991.71L3150.23 5222.41C3124.37 5250.08 3016.97 5252.29 2986.38 5222.41Z" fill="#50F090"/>
<rect x="5607.58" y="4641.88" width="941.666" height="624.663" rx="100" transform="rotate(18.2854 5607.58 4641.88)" fill="#FFE602" fill-opacity="0.67"/>
<rect x="5787.45" y="4489.03" width="931.666" height="614.663" rx="95" transform="rotate(18.2854 5787.45 4489.03)" fill="#C4C4C4" fill-opacity="0.51" stroke="#C4C4C4" stroke-width="10"/>
<path d="M5562 2834V3962C5562 3989.61 5584.39 4012 5612 4012H5768.54C5796.16 4012 5818.54 3989.61 5818.54 3962V3040.85C5818.54 3013.24 5840.93 2990.85 5868.54 2990.85H6359V2834C6359 2806.39 6336.61 2784 6309 2784H5612C5584.39 2784 5562 2806.39 5562 2834Z" fill="#3A3A3A" fill-opacity="0.5"/>
<path d="M5271 2649V7100" stroke="#BFB6B6" stroke-opacity="0.37" stroke-width="50"/>
<path d="M3763 2653V7104" stroke="#BFB6B6" stroke-opacity="0.37" stroke-width="50"/>
<path d="M6803 5660L2351 5660" stroke="#BFB6B6" stroke-opacity="0.37" stroke-width="50"/>
<path d="M6806 4217L2355 4217" stroke="#BFB6B6" stroke-opacity="0.37" stroke-width="50"/>
<path d="M2523.28 2874H2509.66V2783.69L2482.34 2793.73V2781.42L2521.16 2766.85H2523.28V2874Z" fill="#C4C4C4"/>
<path d="M5461.42 4283.29V4294.79H5458.93C5448.38 4294.98 5439.99 4298.11 5433.74 4304.16C5427.49 4310.21 5423.87 4318.74 5422.9 4329.72C5428.51 4323.28 5436.18 4320.05 5445.89 4320.05C5455.17 4320.05 5462.57 4323.33 5468.09 4329.87C5473.65 4336.41 5476.44 4344.86 5476.44 4355.21C5476.44 4366.2 5473.43 4374.99 5467.43 4381.58C5461.47 4388.17 5453.46 4391.46 5443.4 4391.46C5433.2 4391.46 5424.92 4387.56 5418.58 4379.75C5412.23 4371.88 5409.05 4361.78 5409.05 4349.42V4344.22C5409.05 4324.59 5413.23 4309.6 5421.58 4299.25C5429.98 4288.85 5442.45 4283.53 5459 4283.29H5461.42ZM5443.62 4331.33C5438.99 4331.33 5434.71 4332.72 5430.81 4335.51C5426.9 4338.29 5424.19 4341.78 5422.68 4345.98V4350.96C5422.68 4359.75 5424.65 4366.83 5428.61 4372.2C5432.56 4377.57 5437.5 4380.26 5443.4 4380.26C5449.51 4380.26 5454.29 4378.01 5457.76 4373.52C5461.28 4369.03 5463.03 4363.14 5463.03 4355.87C5463.03 4348.54 5461.25 4342.64 5457.69 4338.14C5454.17 4333.6 5449.48 4331.33 5443.62 4331.33Z" fill="#C4C4C4"/>
<path d="M3919.97 4352.53L3925.39 4299.36H3980.03V4311.88H3936.89L3933.67 4340.96C3938.89 4337.88 3944.83 4336.35 3951.47 4336.35C3961.18 4336.35 3968.9 4339.57 3974.61 4346.01C3980.33 4352.41 3983.18 4361.08 3983.18 4372.02C3983.18 4383 3980.2 4391.67 3974.25 4398.02C3968.34 4404.32 3960.06 4407.46 3949.42 4407.46C3939.99 4407.46 3932.3 4404.85 3926.35 4399.63C3920.39 4394.4 3917 4387.18 3916.17 4377.95H3928.98C3929.81 4384.05 3931.99 4388.67 3935.5 4391.79C3939.02 4394.87 3943.66 4396.41 3949.42 4396.41C3955.72 4396.41 3960.65 4394.26 3964.21 4389.96C3967.83 4385.66 3969.63 4379.73 3969.63 4372.16C3969.63 4365.03 3967.68 4359.32 3963.77 4355.02C3959.92 4350.68 3954.76 4348.5 3948.32 4348.5C3942.41 4348.5 3937.77 4349.8 3934.4 4352.39L3930.81 4355.32L3919.97 4352.53Z" fill="#C4C4C4"/>
<path d="M2489.95 4370.18H2504.75V4381.24H2489.95V4406H2476.33V4381.24H2427.77V4373.26L2475.52 4299.36H2489.95V4370.18ZM2443.15 4370.18H2476.33V4317.89L2474.72 4320.82L2443.15 4370.18Z" fill="#C4C4C4"/>
<path d="M5446.68 5806.12C5443.84 5809.49 5440.45 5812.2 5436.5 5814.25C5432.59 5816.31 5428.29 5817.33 5423.61 5817.33C5417.45 5817.33 5412.08 5815.82 5407.49 5812.79C5402.95 5809.76 5399.44 5805.51 5396.95 5800.05C5394.46 5794.53 5393.21 5788.45 5393.21 5781.81C5393.21 5774.68 5394.55 5768.26 5397.24 5762.55C5399.97 5756.83 5403.83 5752.46 5408.81 5749.44C5413.79 5746.41 5419.6 5744.89 5426.24 5744.89C5436.79 5744.89 5445.09 5748.85 5451.14 5756.76C5457.25 5764.62 5460.3 5775.36 5460.3 5788.99V5792.94C5460.3 5813.69 5456.2 5828.85 5448 5838.42C5439.79 5847.95 5427.41 5852.83 5410.86 5853.07H5408.22V5841.65H5411.08C5422.26 5841.45 5430.86 5838.55 5436.86 5832.93C5442.87 5827.27 5446.14 5818.33 5446.68 5806.12ZM5425.8 5806.12C5430.34 5806.12 5434.52 5804.73 5438.33 5801.95C5442.18 5799.17 5444.99 5795.72 5446.75 5791.62V5786.2C5446.75 5777.32 5444.82 5770.09 5440.96 5764.52C5437.11 5758.96 5432.22 5756.17 5426.32 5756.17C5420.36 5756.17 5415.57 5758.47 5411.96 5763.06C5408.35 5767.6 5406.54 5773.61 5406.54 5781.08C5406.54 5788.35 5408.27 5794.36 5411.74 5799.09C5415.26 5803.78 5419.94 5806.12 5425.8 5806.12Z" fill="#C4C4C4"/>
<path d="M3978.42 5780.19C3978.42 5785.51 3977 5790.25 3974.17 5794.4C3971.39 5798.55 3967.61 5801.8 3962.82 5804.14C3968.39 5806.53 3972.78 5810.03 3976 5814.62C3979.28 5819.21 3980.91 5824.41 3980.91 5830.22C3980.91 5839.44 3977.79 5846.79 3971.54 5852.26C3965.33 5857.73 3957.16 5860.46 3947 5860.46C3936.75 5860.46 3928.52 5857.73 3922.32 5852.26C3916.17 5846.74 3913.09 5839.4 3913.09 5830.22C3913.09 5824.45 3914.65 5819.25 3917.78 5814.62C3920.95 5809.98 3925.32 5806.46 3930.89 5804.07C3926.15 5801.72 3922.42 5798.48 3919.68 5794.33C3916.95 5790.18 3915.58 5785.46 3915.58 5780.19C3915.58 5771.21 3918.46 5764.08 3924.22 5758.8C3929.98 5753.53 3937.58 5750.89 3947 5750.89C3956.38 5750.89 3963.94 5753.53 3969.71 5758.8C3975.52 5764.08 3978.42 5771.21 3978.42 5780.19ZM3967.36 5829.92C3967.36 5823.97 3965.46 5819.11 3961.65 5815.35C3957.89 5811.59 3952.96 5809.71 3946.85 5809.71C3940.75 5809.71 3935.84 5811.56 3932.13 5815.27C3928.47 5818.99 3926.64 5823.87 3926.64 5829.92C3926.64 5835.98 3928.42 5840.74 3931.99 5844.21C3935.6 5847.67 3940.6 5849.41 3947 5849.41C3953.35 5849.41 3958.33 5847.67 3961.94 5844.21C3965.55 5840.69 3967.36 5835.93 3967.36 5829.92ZM3947 5762.03C3941.68 5762.03 3937.36 5763.69 3934.04 5767.01C3930.76 5770.28 3929.13 5774.75 3929.13 5780.41C3929.13 5785.83 3930.74 5790.23 3933.96 5793.59C3937.23 5796.92 3941.58 5798.58 3947 5798.58C3952.42 5798.58 3956.74 5796.92 3959.96 5793.59C3963.24 5790.23 3964.87 5785.83 3964.87 5780.41C3964.87 5774.99 3963.19 5770.57 3959.82 5767.15C3956.45 5763.74 3952.18 5762.03 3947 5762.03Z" fill="#C4C4C4"/>
<path d="M2484.6 5788.98L2440.43 5888H2426.22L2470.24 5792.49H2412.53V5781.36H2484.6V5788.98Z" fill="#C4C4C4"/>
<path d="M3956.62 2859H3886.75V2849.26L3923.66 2808.24C3929.13 2802.04 3932.89 2797.01 3934.94 2793.16C3937.04 2789.25 3938.09 2785.22 3938.09 2781.07C3938.09 2775.5 3936.41 2770.94 3933.04 2767.37C3929.67 2763.81 3925.18 2762.03 3919.56 2762.03C3912.82 2762.03 3907.57 2763.96 3903.81 2767.81C3900.1 2771.62 3898.25 2776.94 3898.25 2783.78H3884.7C3884.7 2773.97 3887.85 2766.03 3894.15 2759.98C3900.49 2753.92 3908.96 2750.89 3919.56 2750.89C3929.47 2750.89 3937.31 2753.51 3943.07 2758.73C3948.83 2763.91 3951.71 2770.82 3951.71 2779.46C3951.71 2789.96 3945.02 2802.46 3931.65 2816.96L3903.08 2847.94H3956.62V2859Z" fill="#C4C4C4"/>
<path d="M5444.45 2784.09H5454.63C5461.03 2783.99 5466.06 2782.31 5469.72 2779.03C5473.38 2775.76 5475.21 2771.34 5475.21 2765.78C5475.21 2753.28 5468.99 2747.03 5456.54 2747.03C5450.68 2747.03 5445.99 2748.71 5442.47 2752.08C5439.01 2755.4 5437.27 2759.82 5437.27 2765.34H5423.72C5423.72 2756.89 5426.8 2749.88 5432.95 2744.32C5439.15 2738.7 5447.01 2735.89 5456.54 2735.89C5466.59 2735.89 5474.48 2738.56 5480.19 2743.88C5485.91 2749.2 5488.76 2756.6 5488.76 2766.07C5488.76 2770.71 5487.25 2775.2 5484.22 2779.55C5481.24 2783.89 5477.17 2787.14 5471.99 2789.29C5477.85 2791.14 5482.37 2794.22 5485.54 2798.52C5488.76 2802.81 5490.37 2808.06 5490.37 2814.26C5490.37 2823.83 5487.25 2831.43 5481 2837.04C5474.75 2842.66 5466.62 2845.46 5456.61 2845.46C5446.6 2845.46 5438.44 2842.75 5432.15 2837.33C5425.9 2831.92 5422.77 2824.76 5422.77 2815.88H5436.39C5436.39 2821.49 5438.22 2825.98 5441.89 2829.35C5445.55 2832.72 5450.46 2834.41 5456.61 2834.41C5463.15 2834.41 5468.16 2832.7 5471.62 2829.28C5475.09 2825.86 5476.82 2820.95 5476.82 2814.56C5476.82 2808.36 5474.92 2803.59 5471.11 2800.27C5467.3 2796.95 5461.81 2795.25 5454.63 2795.15H5444.45V2784.09Z" fill="#C4C4C4"/>
<path d="M7606.57 6143.86L6939.57 7007.08C6910.41 7044.82 6850 7024.2 6850 6976.51V2643.93C6850 2632.81 6853.71 2622.01 6860.54 2613.23L7527.54 1755.98C7556.77 1718.41 7617 1739.08 7617 1786.68V6113.29C7617 6124.35 7613.33 6135.1 7606.57 6143.86Z" fill="#C17979"/>
<path d="M6806.59 2596H2401.22C2359.09 2596 2335.85 2547.09 2362.46 2514.42L3043.98 1677.84C3062.97 1654.53 3091.44 1641 3121.51 1641H7475.41C7517.08 1641 7540.47 1688.98 7514.79 1721.81L6845.97 2576.81C6836.5 2588.92 6821.97 2596 6806.59 2596Z" fill="#DFC95B"/>
<path d="M3753.75 2584.48L4461.6 1652.12" stroke="#BCB3B3" stroke-width="50"/>
<path d="M5288.16 2580.81L5991.8 1653.94" stroke="#BCB3B3" stroke-width="50"/>
<path d="M2868 1911.7L7344.98 1911.7" stroke="#BCB3B3" stroke-width="50"/>
<line x1="2589.04" y1="2254" x2="7074.04" y2="2260.54" stroke="#BCB3B3" stroke-width="50"/>
<line x1="7098.36" y1="6791.88" x2="7121.59" y2="2306.87" stroke="#BCB3B3" stroke-opacity="0.65" stroke-width="50"/>
<path d="M7417 6386L7417 1919" stroke="#BCB3B3" stroke-opacity="0.65" stroke-width="50"/>
<path d="M6862.16 5670.03L7605.68 4744.72" stroke="#BCB3B3" stroke-opacity="0.65" stroke-width="50"/>
<path d="M6862.16 4210.66L7605.68 3285.35" stroke="#BCB3B3" stroke-opacity="0.65" stroke-width="50"/>
<path d="M2795.33 3414.08L2632.01 2742.08C2627.42 2723.2 2641.73 2705 2661.16 2705H3536.53C3556.37 2705 3570.74 2723.91 3565.43 2743.03L3378.73 3415.03C3375.13 3428.01 3363.3 3437 3349.83 3437H2824.49C2810.65 3437 2798.6 3427.53 2795.33 3414.08Z" fill="#C4C4C4" fill-opacity="0.5"/>
<path d="M5246 3215L3784 3549.7V4113L5246 3770.11V3215Z" fill="#C4C4C4" fill-opacity="0.5"/>
<path d="M4409.39 3666.3C4390.18 3656.32 4379 3672.15 4379 3672.15L4419.78 3764L4429 3761.76L4409.39 3666.3Z" fill="#C4C4C4"/>
<path d="M4335.39 3609.3C4316.18 3599.32 4305 3615.15 4305 3615.15L4345.78 3707L4355 3704.76L4335.39 3609.3Z" fill="#C4C4C4"/>
<path d="M4369.39 3729.27C4350.18 3719.39 4339 3735.06 4339 3735.06L4379.78 3826L4389 3823.79L4369.39 3729.27Z" fill="#C4C4C4"/>
<path d="M4310.39 3710.3C4291.18 3700.32 4280 3716.15 4280 3716.15L4320.78 3808L4330 3805.76L4310.39 3710.3Z" fill="#C4C4C4"/>
<path d="M3908.24 3588.25C3897.75 3582.28 3880.7 3582.2 3870.15 3588.07L3817.34 3617.46C3806.79 3623.33 3806.75 3632.93 3817.24 3638.9L3869.77 3668.81C3880.25 3674.78 3897.3 3674.86 3907.85 3668.99L3960.66 3639.6C3971.21 3633.73 3971.25 3624.13 3960.76 3618.16L3908.24 3588.25Z" fill="#3A3A3A"/>
<path d="M3966.27 3687.48L3968.26 3630.06L3910.91 3662.3C3897.59 3669.78 3881.35 3669.74 3868.07 3662.18L3809.35 3628.75V3686.67C3809.35 3694.63 3813.65 3701.97 3820.57 3705.84L3878.6 3738.24C3885.33 3742 3893.54 3741.91 3900.19 3738.02L3955.45 3705.66C3961.93 3701.87 3966.01 3695.01 3966.27 3687.48Z" fill="#3D3E44"/>
<path d="M3908.24 3707.11C3897.75 3701.22 3880.7 3701.14 3870.16 3706.93L3817.34 3735.97C3806.8 3741.77 3806.75 3751.25 3817.24 3757.15L3869.76 3786.69C3880.25 3792.59 3897.3 3792.67 3907.85 3786.87L3960.66 3757.83C3971.21 3752.03 3971.25 3742.55 3960.77 3736.66L3908.24 3707.11Z" fill="#3A3A3A"/>
<path d="M3966.27 3805.13L3968.26 3748.42L3910.91 3780.26C3897.59 3787.65 3881.35 3787.61 3868.07 3780.14L3809.35 3747.12V3804.34C3809.35 3812.2 3813.65 3819.45 3820.57 3823.27L3878.6 3855.27C3885.33 3858.99 3893.54 3858.9 3900.19 3855.05L3955.45 3823.1C3961.93 3819.35 3966.01 3812.57 3966.27 3805.13Z" fill="#3D3E44"/>
<path d="M3908.24 3814.18C3897.75 3808.25 3880.7 3808.17 3870.15 3814L3817.34 3843.22C3806.79 3849.05 3806.75 3858.59 3817.24 3864.52L3869.76 3894.25C3880.25 3900.18 3897.3 3900.27 3907.85 3894.43L3960.66 3865.22C3971.21 3859.38 3971.25 3849.84 3960.76 3843.91L3908.24 3814.18Z" fill="#3A3A3A"/>
<path d="M3966.27 3912.81L3968.26 3855.74L3910.91 3887.78C3897.59 3895.22 3881.35 3895.17 3868.07 3887.66L3809.35 3854.43V3912C3809.35 3919.92 3813.65 3927.21 3820.57 3931.05L3878.6 3963.26C3885.33 3966.99 3893.54 3966.91 3900.19 3963.04L3955.45 3930.88C3961.93 3927.11 3966.01 3920.29 3966.27 3912.81Z" fill="#3D3E44"/>
<path d="M4083.63 3640.18C4073.2 3634.25 4056.24 3634.17 4045.76 3640L3993.23 3669.21C3982.75 3675.05 3982.7 3684.59 3993.13 3690.52L4045.37 3720.25C4055.8 3726.18 4072.76 3726.27 4083.24 3720.43L4135.77 3691.22C4146.25 3685.38 4146.3 3675.85 4135.87 3669.91L4083.63 3640.18Z" fill="#3A3A3A"/>
<path d="M4141.35 3738.81L4143.32 3681.74L4086.29 3713.78C4073.05 3721.22 4056.89 3721.17 4043.68 3713.66L3985.29 3680.43V3738C3985.29 3745.92 3989.56 3753.21 3996.45 3757.05L4054.15 3789.26C4060.85 3792.99 4069.01 3792.91 4075.63 3789.04L4130.58 3756.88C4137.03 3753.11 4141.09 3746.29 4141.35 3738.81Z" fill="#3D3E44"/>
<path d="M4083.63 3758.18C4073.2 3752.25 4056.24 3752.17 4045.76 3758L3993.23 3787.21C3982.75 3793.05 3982.7 3802.59 3993.13 3808.52L4045.37 3838.25C4055.8 3844.18 4072.76 3844.27 4083.24 3838.43L4135.77 3809.22C4146.25 3803.38 4146.3 3793.85 4135.87 3787.91L4083.63 3758.18Z" fill="#3A3A3A"/>
<path d="M4141.35 3856.81L4143.32 3799.74L4086.29 3831.78C4073.05 3839.22 4056.89 3839.17 4043.68 3831.66L3985.29 3798.43V3856C3985.29 3863.92 3989.56 3871.21 3996.45 3875.05L4054.15 3907.26C4060.85 3910.99 4069.01 3910.91 4075.63 3907.04L4130.58 3874.88C4137.03 3871.11 4141.09 3864.29 4141.35 3856.81Z" fill="#3D3E44"/>
<path d="M4083.63 3865.18C4073.2 3859.25 4056.24 3859.17 4045.76 3865L3993.23 3894.21C3982.75 3900.05 3982.7 3909.59 3993.13 3915.52L4045.37 3945.25C4055.8 3951.18 4072.76 3951.27 4083.24 3945.43L4135.77 3916.22C4146.25 3910.38 4146.3 3900.85 4135.87 3894.91L4083.63 3865.18Z" fill="#3A3A3A"/>
<path d="M4141.35 3963.81L4143.32 3906.74L4086.29 3938.78C4073.05 3946.22 4056.89 3946.17 4043.68 3938.66L3985.29 3905.43V3963C3985.29 3970.92 3989.56 3978.21 3996.45 3982.05L4054.15 4014.26C4060.85 4017.99 4069.01 4017.91 4075.63 4014.04L4130.58 3981.88C4137.03 3978.11 4141.09 3971.29 4141.35 3963.81Z" fill="#3D3E44"/>
<path d="M3305.44 3484.82C3310.15 3475.11 3309.07 3459.99 3303.03 3451.05L3272.77 3406.28C3266.73 3397.35 3258.01 3397.97 3253.3 3407.68L3229.69 3456.32C3224.98 3466.03 3226.06 3481.15 3232.1 3490.09L3262.36 3534.86C3268.4 3543.8 3277.12 3543.17 3281.83 3533.46L3305.44 3484.82Z" fill="#3A3A3A"/>
<path d="M3219.28 3543.15L3271.54 3540.93L3238.39 3492.34C3230.69 3481.05 3229.63 3466.65 3235.6 3454.35L3261.97 3399.99L3209.38 3404.01C3202.15 3404.56 3195.78 3408.88 3192.74 3415.29L3167.25 3468.96C3164.29 3475.19 3164.92 3482.46 3168.91 3488.09L3202.03 3534.82C3205.91 3540.3 3212.42 3543.45 3219.28 3543.15Z" fill="#3D3E44"/>
<path d="M3241.46 3671.36C3233.37 3664.22 3218.52 3661.21 3208.28 3664.64L3157.05 3681.8C3146.82 3685.23 3145.08 3693.8 3153.18 3700.94L3193.72 3736.71C3201.81 3743.85 3216.67 3746.86 3226.9 3743.43L3278.14 3726.27C3288.37 3722.84 3290.1 3714.27 3282 3707.13L3241.46 3671.36Z" fill="#3A3A3A"/>
<path d="M3274.59 3770L3286.44 3719.05L3230.75 3737.97C3217.81 3742.37 3203.65 3739.53 3193.4 3730.49L3148.09 3690.52L3137.87 3742.27C3136.47 3749.38 3138.92 3756.67 3144.28 3761.32L3189.17 3800.26C3194.38 3804.77 3201.55 3806.11 3208.05 3803.78L3261.94 3784.38C3268.26 3782.11 3273.03 3776.68 3274.59 3770Z" fill="#3D3E44"/>
<path d="M3012.81 3476.98C3002.46 3480.04 2992.01 3491.02 2989.47 3501.5L2976.76 3554.02C2974.22 3564.51 2980.56 3570.53 2990.91 3567.48L3042.76 3552.17C3053.11 3549.11 3063.56 3538.13 3066.1 3527.65L3078.81 3475.13C3081.35 3464.64 3075.02 3458.62 3064.66 3461.67L3012.81 3476.98Z" fill="#3A3A3A"/>
<path d="M3113.96 3501.39L3077.11 3464.25L3063.52 3521.48C3060.37 3534.78 3050.43 3545.26 3037.33 3549.13L2979.38 3566.25L3017.77 3602.42C3023.05 3607.39 3030.53 3609.19 3037.31 3607.12L3094.16 3589.81C3100.76 3587.8 3105.7 3582.44 3107.18 3575.7L3119.42 3519.75C3120.85 3513.19 3118.79 3506.26 3113.96 3501.39Z" fill="#3D3E44"/>
<path d="M3012.81 3476.98C3002.46 3480.04 2992.01 3491.02 2989.47 3501.5L2976.76 3554.02C2974.22 3564.51 2980.56 3570.53 2990.91 3567.48L3042.76 3552.17C3053.11 3549.11 3063.56 3538.13 3066.1 3527.65L3078.81 3475.13C3081.35 3464.64 3075.02 3458.62 3064.66 3461.67L3012.81 3476.98Z" fill="#3A3A3A"/>
<path d="M3113.96 3501.39L3077.11 3464.25L3063.52 3521.48C3060.37 3534.78 3050.43 3545.26 3037.33 3549.13L2979.38 3566.25L3017.77 3602.42C3023.05 3607.39 3030.53 3609.19 3037.31 3607.12L3094.16 3589.81C3100.76 3587.8 3105.7 3582.44 3107.18 3575.7L3119.42 3519.75C3120.85 3513.19 3118.79 3506.26 3113.96 3501.39Z" fill="#3D3E44"/>
<path d="M3012.81 3476.98C3002.46 3480.04 2992.01 3491.02 2989.47 3501.5L2976.76 3554.02C2974.22 3564.51 2980.56 3570.53 2990.91 3567.48L3042.76 3552.17C3053.11 3549.11 3063.56 3538.13 3066.1 3527.65L3078.81 3475.13C3081.35 3464.64 3075.02 3458.62 3064.66 3461.67L3012.81 3476.98Z" fill="#3A3A3A"/>
<path d="M3113.96 3501.39L3077.11 3464.25L3063.52 3521.48C3060.37 3534.78 3050.43 3545.26 3037.33 3549.13L2979.38 3566.25L3017.77 3602.42C3023.05 3607.39 3030.53 3609.19 3037.31 3607.12L3094.16 3589.81C3100.76 3587.8 3105.7 3582.44 3107.18 3575.7L3119.42 3519.75C3120.85 3513.19 3118.79 3506.26 3113.96 3501.39Z" fill="#3D3E44"/>
<path d="M3008.34 3306.07C2997.98 3309.12 2987.53 3320.1 2985 3330.59L2972.28 3383.11C2969.74 3393.59 2976.08 3399.62 2986.43 3396.56L3038.28 3381.25C3048.63 3378.19 3059.08 3367.21 3061.62 3356.73L3074.33 3304.21C3076.87 3293.72 3070.54 3287.7 3060.19 3290.76L3008.34 3306.07Z" fill="#3A3A3A"/>
<path d="M3109.48 3330.47L3072.64 3293.34L3059.05 3350.57C3055.89 3363.86 3045.96 3374.34 3032.85 3378.21L2974.9 3395.33L3013.29 3431.5C3018.57 3436.47 3026.05 3438.27 3032.84 3436.21L3089.68 3418.9C3096.28 3416.89 3101.22 3411.52 3102.7 3404.78L3114.94 3348.83C3116.37 3342.27 3114.31 3335.34 3109.48 3330.47Z" fill="#3D3E44"/>
<path d="M3139.34 3086.64C3128.99 3089.69 3118.54 3100.67 3116 3111.16L3103.28 3163.68C3100.75 3174.16 3107.08 3180.19 3117.43 3177.13L3169.28 3161.82C3179.63 3158.76 3190.08 3147.79 3192.62 3137.3L3205.34 3084.78C3207.88 3074.29 3201.54 3068.27 3191.19 3071.33L3139.34 3086.64Z" fill="#3A3A3A"/>
<path d="M3240.49 3111.04L3203.64 3073.91L3190.05 3131.14C3186.89 3144.43 3176.96 3154.91 3163.85 3158.78L3105.9 3175.9L3144.29 3212.07C3149.57 3217.04 3157.05 3218.84 3163.84 3216.78L3220.68 3199.47C3227.28 3197.46 3232.23 3192.1 3233.7 3185.36L3245.94 3129.4C3247.38 3122.84 3245.32 3115.91 3240.49 3111.04Z" fill="#3D3E44"/>
<path d="M2837.38 3051.92C2827.03 3054.98 2816.58 3065.96 2814.04 3076.44L2801.32 3128.96C2798.78 3139.45 2805.12 3145.47 2815.47 3142.41L2867.32 3127.1C2877.67 3124.05 2888.12 3113.07 2890.66 3102.58L2903.38 3050.06C2905.91 3039.58 2899.58 3033.55 2889.23 3036.61L2837.38 3051.92Z" fill="#3A3A3A"/>
<path d="M2938.53 3076.33L2901.68 3039.19L2888.09 3096.42C2884.93 3109.71 2875 3120.2 2861.89 3124.07L2803.94 3141.18L2842.33 3177.36C2847.61 3182.33 2855.09 3184.13 2861.88 3182.06L2918.72 3164.75C2925.32 3162.74 2930.27 3157.38 2931.74 3150.64L2943.98 3094.69C2945.41 3088.13 2943.36 3081.2 2938.53 3076.33Z" fill="#3D3E44"/>
<path d="M3215.32 3225.5C3204.97 3228.56 3194.52 3239.53 3191.98 3250.02L3179.27 3302.54C3176.73 3313.03 3183.06 3319.05 3193.41 3315.99L3245.26 3300.68C3255.62 3297.63 3266.07 3286.65 3268.6 3276.16L3281.32 3223.64C3283.86 3213.16 3277.52 3207.13 3267.17 3210.19L3215.32 3225.5Z" fill="#3A3A3A"/>
<path d="M3316.47 3249.91L3279.62 3212.77L3266.03 3270C3262.87 3283.29 3252.94 3293.78 3239.83 3297.65L3181.88 3314.76L3220.28 3350.93C3225.55 3355.91 3233.03 3357.71 3239.82 3355.64L3296.66 3338.33C3303.26 3336.32 3308.21 3330.96 3309.68 3324.22L3321.92 3268.26C3323.36 3261.71 3321.3 3254.77 3316.47 3249.91Z" fill="#3D3E44"/>
<path d="M2796.77 3579.21C2786.41 3582.26 2775.96 3593.24 2773.43 3603.73L2760.71 3656.25C2758.17 3666.73 2764.51 3672.76 2774.86 3669.7L2826.71 3654.39C2837.06 3651.33 2847.51 3640.35 2850.05 3629.87L2862.77 3577.35C2865.3 3566.86 2858.97 3560.84 2848.62 3563.9L2796.77 3579.21Z" fill="#3A3A3A"/>
<path d="M2897.91 3603.61L2861.07 3566.48L2847.48 3623.71C2844.32 3637 2834.39 3647.48 2821.28 3651.35L2763.33 3668.47L2801.72 3704.64C2807 3709.61 2814.48 3711.41 2821.27 3709.35L2878.11 3692.04C2884.71 3690.03 2889.66 3684.66 2891.13 3677.92L2903.37 3621.97C2904.8 3615.41 2902.74 3608.48 2897.91 3603.61Z" fill="#3D3E44"/>
<circle r="24.0674" transform="matrix(0.935922 -0.352207 0.935922 0.352207 4203.55 3711.71)" fill="#C4C4C4"/>
<circle r="19.0674" transform="matrix(0.935922 -0.352207 0.935922 0.352207 4203.55 3711.71)" stroke="black" stroke-opacity="0.2" stroke-width="10"/>
<circle r="24.0674" transform="matrix(0.93592 -0.352212 0.93592 0.352212 4203.55 3656.32)" fill="#C4C4C4"/>
<circle r="19.0674" transform="matrix(0.93592 -0.352212 0.93592 0.352212 4203.55 3656.32)" stroke="black" stroke-opacity="0.2" stroke-width="10"/>
<circle r="24.0674" transform="matrix(0.935922 -0.352207 0.935922 0.352207 4201.05 3547.95)" fill="#C4C4C4"/>
<circle r="19.0674" transform="matrix(0.935922 -0.352207 0.935922 0.352207 4201.05 3547.95)" stroke="black" stroke-opacity="0.2" stroke-width="10"/>
<circle r="24.0673" transform="matrix(0.935923 -0.352205 0.935923 0.352205 4203.55 3602.38)" fill="#C4C4C4"/>
<circle r="19.0673" transform="matrix(0.935923 -0.352205 0.935923 0.352205 4203.55 3602.38)" stroke="black" stroke-opacity="0.2" stroke-width="10"/>
<path d="M4921.18 3326.2C4910.04 3320.46 4892.32 3321.09 4881.61 3327.6L4827.98 3360.22C4817.27 3366.73 4817.62 3376.65 4828.77 3382.39L4884.58 3411.11C4895.72 3416.85 4913.44 3416.22 4924.15 3409.71L4977.78 3377.09C4988.49 3370.58 4988.14 3360.66 4976.99 3354.92L4921.18 3326.2Z" fill="url(#paint0_linear)" fill-opacity="0.85"/>
<path d="M4985.61 3426.37L4985.27 3366.92L4927.05 3402.65C4913.53 3410.95 4896.65 3411.59 4882.54 3404.33L4820.15 3372.22L4822.57 3432.12C4822.9 3440.35 4827.67 3447.76 4835.03 3451.47L4896.65 3482.54C4903.8 3486.14 4912.33 3485.71 4919.08 3481.4L4975.13 3445.63C4981.7 3441.44 4985.65 3434.17 4985.61 3426.37Z" fill="#3D3E44"/>
<circle r="28.3204" transform="matrix(0.917471 -0.397802 0.917471 0.397802 4903.1 3365.4)" fill="#C4C4C4"/>
<circle r="19.2925" transform="matrix(0.917471 -0.397802 0.917471 0.397802 4902.87 3353.23)" fill="#C4C4C4"/>
<circle r="14.2925" transform="matrix(0.917471 -0.397802 0.917471 0.397802 4902.87 3353.23)" stroke="black" stroke-opacity="0.2" stroke-width="10"/>
<path d="M4921.18 3441.48C4910.04 3435.75 4892.32 3436.37 4881.61 3442.89L4827.98 3475.5C4817.27 3482.01 4817.62 3491.94 4828.77 3497.67L4884.58 3526.39C4895.72 3532.13 4913.44 3531.5 4924.15 3524.99L4977.78 3492.38C4988.49 3485.87 4988.14 3475.94 4976.99 3470.2L4921.18 3441.48Z" fill="url(#paint1_linear)" fill-opacity="0.85"/>
<path d="M4985.61 3541.66L4985.27 3482.2L4927.05 3517.93C4913.53 3526.24 4896.65 3526.87 4882.54 3519.61L4820.15 3487.5L4822.57 3547.4C4822.9 3555.63 4827.67 3563.04 4835.03 3566.75L4896.65 3597.82C4903.8 3601.43 4912.33 3600.99 4919.08 3596.69L4975.13 3560.91C4981.7 3556.72 4985.65 3549.45 4985.61 3541.66Z" fill="#3D3E44"/>
<circle r="28.3204" transform="matrix(0.917471 -0.397802 0.917471 0.397802 4903.1 3480.68)" fill="#C4C4C4"/>
<circle r="19.2925" transform="matrix(0.917471 -0.397802 0.917471 0.397802 4902.87 3468.51)" fill="#C4C4C4"/>
<circle r="14.2925" transform="matrix(0.917471 -0.397802 0.917471 0.397802 4902.87 3468.51)" stroke="black" stroke-opacity="0.2" stroke-width="10"/>
<path d="M4923.8 3563.97C4912.66 3558.23 4894.94 3558.86 4884.23 3565.37L4830.6 3597.98C4819.89 3604.5 4820.24 3614.42 4831.38 3620.16L4887.2 3648.88C4898.34 3654.62 4916.06 3653.99 4926.77 3647.48L4980.4 3614.86C4991.11 3608.35 4990.76 3598.43 4979.61 3592.69L4923.8 3563.97Z" fill="url(#paint2_linear)" fill-opacity="0.85"/>
<path d="M4988.23 3664.14L4987.89 3604.69L4929.67 3640.42C4916.15 3648.72 4899.27 3649.36 4885.16 3642.1L4822.77 3609.99L4825.19 3669.89C4825.52 3678.12 4830.29 3685.53 4837.65 3689.24L4899.27 3720.31C4906.42 3723.91 4914.95 3723.48 4921.7 3719.17L4977.75 3683.4C4984.32 3679.21 4988.27 3671.94 4988.23 3664.14Z" fill="#3D3E44"/>
<circle r="28.3204" transform="matrix(0.917471 -0.397802 0.917471 0.397802 4905.72 3603.17)" fill="#C4C4C4"/>
<circle r="19.2925" transform="matrix(0.917471 -0.397802 0.917471 0.397802 4905.49 3590.99)" fill="#C4C4C4"/>
<circle r="14.2925" transform="matrix(0.917471 -0.397802 0.917471 0.397802 4905.49 3590.99)" stroke="black" stroke-opacity="0.2" stroke-width="10"/>
<path d="M5100.65 3375.32C5089.51 3369.59 5071.79 3370.22 5061.09 3376.73L5007.45 3409.34C4996.74 3415.85 4997.09 3425.78 5008.24 3431.51L5064.05 3460.24C5075.2 3465.97 5092.91 3465.34 5103.62 3458.83L5157.25 3426.22C5167.96 3419.71 5167.61 3409.78 5156.47 3404.05L5100.65 3375.32Z" fill="url(#paint3_linear)" fill-opacity="0.85"/>
<path d="M5165.08 3475.5L5164.75 3416.04L5106.52 3451.78C5093 3460.08 5076.12 3460.71 5062.02 3453.45L4999.62 3421.35L5002.04 3481.25C5002.37 3489.48 5007.14 3496.88 5014.5 3500.59L5076.13 3531.66C5083.28 3535.27 5091.8 3534.84 5098.55 3530.53L5154.6 3494.76C5161.17 3490.56 5165.13 3483.29 5165.08 3475.5Z" fill="#3D3E44"/>
<circle r="28.3204" transform="matrix(0.917471 -0.397802 0.917471 0.397802 5082.57 3414.53)" fill="#C4C4C4"/>
<circle r="19.2925" transform="matrix(0.917471 -0.397802 0.917471 0.397802 5082.34 3402.35)" fill="#C4C4C4"/>
<circle r="14.2925" transform="matrix(0.917471 -0.397802 0.917471 0.397802 5082.34 3402.35)" stroke="black" stroke-opacity="0.2" stroke-width="10"/>
<path d="M5100.65 3490.61C5089.51 3484.87 5071.79 3485.5 5061.09 3492.01L5007.45 3524.62C4996.74 3531.13 4997.09 3541.06 5008.24 3546.8L5064.05 3575.52C5075.2 3581.25 5092.91 3580.63 5103.62 3574.11L5157.25 3541.5C5167.96 3534.99 5167.61 3525.06 5156.47 3519.33L5100.65 3490.61Z" fill="url(#paint4_linear)" fill-opacity="0.85"/>
<path d="M5165.08 3590.78L5164.75 3531.32L5106.52 3567.06C5093 3575.36 5076.12 3576 5062.02 3568.74L4999.62 3536.63L5002.04 3596.53C5002.37 3604.76 5007.14 3612.17 5014.5 3615.88L5076.13 3646.95C5083.28 3650.55 5091.8 3650.12 5098.55 3645.81L5154.6 3610.04C5161.17 3605.85 5165.13 3598.58 5165.08 3590.78Z" fill="#3D3E44"/>
<circle r="28.3204" transform="matrix(0.917471 -0.397802 0.917471 0.397802 5082.57 3529.81)" fill="#C4C4C4"/>
<circle r="19.2925" transform="matrix(0.917471 -0.397802 0.917471 0.397802 5082.34 3517.63)" fill="#C4C4C4"/>
<circle r="14.2925" transform="matrix(0.917471 -0.397802 0.917471 0.397802 5082.34 3517.63)" stroke="black" stroke-opacity="0.2" stroke-width="10"/>
<path d="M5103.27 3613.09C5092.13 3607.36 5074.41 3607.99 5063.71 3614.5L5010.07 3647.11C4999.36 3653.62 4999.71 3663.55 5010.86 3669.28L5066.67 3698.01C5077.82 3703.74 5095.53 3703.11 5106.24 3696.6L5159.87 3663.99C5170.58 3657.48 5170.23 3647.55 5159.09 3641.82L5103.27 3613.09Z" fill="url(#paint5_linear)" fill-opacity="0.85"/>
<path d="M5167.7 3713.27L5167.37 3653.81L5109.14 3689.55C5095.62 3697.85 5078.74 3698.48 5064.64 3691.22L5002.24 3659.12L5004.66 3719.01C5004.99 3727.25 5009.76 3734.65 5017.12 3738.36L5078.75 3769.43C5085.9 3773.04 5094.42 3772.61 5101.17 3768.3L5157.22 3732.53C5163.79 3728.33 5167.75 3721.06 5167.7 3713.27Z" fill="#3D3E44"/>
<circle r="28.3204" transform="matrix(0.917471 -0.397802 0.917471 0.397802 5085.19 3652.3)" fill="#C4C4C4"/>
<circle r="19.2925" transform="matrix(0.917471 -0.397802 0.917471 0.397802 5084.96 3640.12)" fill="#C4C4C4"/>
<circle r="14.2925" transform="matrix(0.917471 -0.397802 0.917471 0.397802 5084.96 3640.12)" stroke="black" stroke-opacity="0.2" stroke-width="10"/>
<line x1="2812.97" y1="2821.03" x2="2939.39" y2="3362.73" stroke="#3D3E44" stroke-opacity="0.5" stroke-width="5"/>
<line x1="3383.5" y1="2822.15" x2="3264.28" y2="3357.29" stroke="#3D3E44" stroke-opacity="0.5" stroke-width="5"/>
<line x1="3096.5" y1="3363" x2="3096.5" y2="2807" stroke="#3D3E44" stroke-opacity="0.5" stroke-width="5"/>
<rect x="4191.89" y="6295.46" width="617.59" height="617.539" rx="20" fill="#0045AD" fill-opacity="0.68"/>
<path d="M4598.58 6298.52V6909.9" stroke="#BFB6B6" stroke-opacity="0.37" stroke-width="10"/>
<path d="M4391.45 6298.97V6910.35" stroke="#BFB6B6" stroke-opacity="0.37" stroke-width="10"/>
<path d="M4808.98 6712.01H4197.56" stroke="#BFB6B6" stroke-opacity="0.37" stroke-width="10"/>
<path d="M4809.52 6513.9H4198.1" stroke="#BFB6B6" stroke-opacity="0.37" stroke-width="10"/>
<path d="M4916.69 6782.06L4851.33 6866.64C4839.67 6881.73 4815.51 6873.48 4815.51 6854.41V6302.28C4815.51 6297.83 4816.99 6293.51 4819.72 6290L4885.09 6206C4896.78 6190.97 4920.87 6199.24 4920.87 6218.28V6769.83C4920.87 6774.25 4919.4 6778.55 4916.69 6782.06Z" fill="#C17979"/>
<path d="M4803.2 6291.14H4230.25C4213.72 6291.14 4204.33 6272.24 4214.31 6259.06L4283.34 6167.98C4287.12 6162.99 4293.02 6160.06 4299.28 6160.06H4874.5C4891.18 6160.06 4900.53 6179.26 4890.25 6192.39L4818.95 6283.47C4815.16 6288.31 4809.35 6291.14 4803.2 6291.14Z" fill="#DFC95B"/>
<path d="M4390.19 6292.08L4492.81 6157" stroke="#BCB3B3" stroke-width="10"/>
<path d="M4597.86 6293.16L4700.48 6158.08" stroke="#BCB3B3" stroke-width="10"/>
<line x1="4263.6" y1="6196.08" x2="4893.52" y2="6195.63" stroke="#BCB3B3" stroke-width="10"/>
<line x1="4223.92" y1="6243.52" x2="4855.01" y2="6243.52" stroke="#BCB3B3" stroke-width="10"/>
<line x1="4848.03" y1="6868.92" x2="4848.03" y2="6248.22" stroke="#BCB3B3" stroke-opacity="0.65" stroke-width="10"/>
<line x1="4889.1" y1="6834.19" x2="4889.1" y2="6196.05" stroke="#BCB3B3" stroke-opacity="0.65" stroke-width="10"/>
<path d="M4817.18 6713.42L4919.31 6586.33" stroke="#BCB3B3" stroke-opacity="0.65" stroke-width="10"/>
<path d="M4817.18 6512.97L4919.31 6385.88" stroke="#BCB3B3" stroke-opacity="0.65" stroke-width="10"/>
<rect x="5812.89" y="6273.64" width="617.59" height="618.356" rx="20" fill="#0045AD" fill-opacity="0.68"/>
<path d="M6219.58 6276.71V6888.89" stroke="#BFB6B6" stroke-opacity="0.37" stroke-width="10"/>
<path d="M6012.45 6277.16V6889.34" stroke="#BFB6B6" stroke-opacity="0.37" stroke-width="10"/>
<path d="M6429.98 6690.75H5818.56" stroke="#BFB6B6" stroke-opacity="0.37" stroke-width="10"/>
<path d="M6430.52 6492.38H5819.1" stroke="#BFB6B6" stroke-opacity="0.37" stroke-width="10"/>
<path d="M6537.7 6760.87L6472.34 6845.57C6460.68 6860.67 6436.51 6852.43 6436.51 6833.35V6280.46C6436.51 6276.01 6437.99 6271.69 6440.72 6268.18L6506.08 6184.08C6517.76 6169.04 6541.87 6177.3 6541.87 6196.35V6748.65C6541.87 6753.08 6540.4 6757.37 6537.7 6760.87Z" fill="#C17979"/>
<path d="M6424.19 6269.32H5851.22C5834.7 6269.32 5825.3 6250.42 5835.27 6237.25L5904.34 6145.99C5908.12 6141 5914.02 6138.06 5920.28 6138.06H6495.54C6512.2 6138.06 6521.56 6157.25 6511.29 6170.38L6439.95 6261.64C6436.16 6266.49 6430.35 6269.32 6424.19 6269.32Z" fill="#DFC95B"/>
<path d="M6011.19 6270.26L6113.81 6135" stroke="#BCB3B3" stroke-width="10"/>
<path d="M6218.86 6271.34L6321.48 6136.08" stroke="#BCB3B3" stroke-width="10"/>
<line y1="-5" x2="629.926" y2="-5" transform="matrix(1 -0.00072036 0.000718589 1 5884.6 6179.14)" stroke="#BCB3B3" stroke-width="10"/>
<line x1="5844.92" y1="6221.64" x2="6476.01" y2="6221.64" stroke="#BCB3B3" stroke-width="10"/>
<line x1="6469.03" y1="6847.86" x2="6469.03" y2="6226.34" stroke="#BCB3B3" stroke-opacity="0.65" stroke-width="10"/>
<line x1="6510.1" y1="6813.08" x2="6510.1" y2="6174.1" stroke="#BCB3B3" stroke-opacity="0.65" stroke-width="10"/>
<path d="M6438.18 6692.16L6540.31 6564.9" stroke="#BCB3B3" stroke-opacity="0.65" stroke-width="10"/>
<path d="M6438.18 6491.44L6540.31 6364.18" stroke="#BCB3B3" stroke-opacity="0.65" stroke-width="10"/>
<rect x="2688.89" y="6292.46" width="617.59" height="617.539" rx="20" fill="#0045AD" fill-opacity="0.68"/>
<path d="M3095.58 6295.52V6906.9" stroke="#BFB6B6" stroke-opacity="0.37" stroke-width="10"/>
<path d="M2888.45 6295.97V6907.35" stroke="#BFB6B6" stroke-opacity="0.37" stroke-width="10"/>
<path d="M3305.99 6709.01H2694.56" stroke="#BFB6B6" stroke-opacity="0.37" stroke-width="10"/>
<path d="M3306.52 6510.9H2695.1" stroke="#BFB6B6" stroke-opacity="0.37" stroke-width="10"/>
<path d="M3413.69 6779.06L3348.33 6863.64C3336.67 6878.73 3312.51 6870.48 3312.51 6851.41V6299.28C3312.51 6294.83 3313.99 6290.51 3316.72 6287L3382.09 6203C3393.78 6187.97 3417.87 6196.24 3417.87 6215.28V6766.83C3417.87 6771.25 3416.4 6775.55 3413.69 6779.06Z" fill="#C17979"/>
<path d="M3300.2 6288.14H2727.25C2710.72 6288.14 2701.33 6269.24 2711.31 6256.06L2780.34 6164.98C2784.12 6159.99 2790.02 6157.06 2796.28 6157.06H3371.5C3388.18 6157.06 3397.53 6176.26 3387.25 6189.39L3315.95 6280.47C3312.16 6285.31 3306.35 6288.14 3300.2 6288.14Z" fill="#DFC95B" fill-opacity="0.26"/>
<path d="M2887.19 6289.08L2989.81 6154" stroke="#BCB3B3" stroke-width="10"/>
<path d="M3094.86 6290.16L3197.48 6155.08" stroke="#BCB3B3" stroke-width="10"/>
<line x1="2760.6" y1="6193.08" x2="3390.52" y2="6192.63" stroke="#BCB3B3" stroke-width="10"/>
<line x1="2720.92" y1="6240.52" x2="3352.01" y2="6240.52" stroke="#BCB3B3" stroke-width="10"/>
<line x1="3345.03" y1="6865.92" x2="3345.03" y2="6245.22" stroke="#BCB3B3" stroke-opacity="0.65" stroke-width="10"/>
<line x1="3386.1" y1="6831.19" x2="3386.1" y2="6193.05" stroke="#BCB3B3" stroke-opacity="0.65" stroke-width="10"/>
<path d="M3314.18 6710.42L3416.31 6583.33" stroke="#BCB3B3" stroke-opacity="0.65" stroke-width="10"/>
<path d="M3314.18 6509.97L3416.31 6382.88" stroke="#BCB3B3" stroke-opacity="0.65" stroke-width="10"/>
<rect x="3.65526" y="2.80381" width="693.25" height="599.745" rx="95" transform="matrix(1.252 -0.00517617 -0.520943 0.565938 2767.25 6079.39)" fill="#FFE602" fill-opacity="0.5" stroke="#C4C4C4" stroke-width="10"/>
<rect x="3.65526" y="2.80381" width="693.25" height="599.745" rx="95" transform="matrix(1.252 -0.00517617 -0.520943 0.565938 4266.08 6046.6)" fill="#FFE602" fill-opacity="0.5" stroke="#C4C4C4" stroke-width="10"/>
<rect x="4920.95" y="5892.36" width="313.503" height="624.663" rx="20" transform="rotate(92.4095 4920.95 5892.36)" fill="#C4C4C4"/>
<line x1="5784.37" y1="5901.58" x2="6222.61" y2="6470.6" stroke="#C4C4C4" stroke-width="30" stroke-linecap="round" stroke-linejoin="round"/>
<rect width="49.5928" height="62.9842" rx="24.7964" transform="matrix(0.897759 0.440486 0.440486 -0.897759 5720.1 5916.1)" fill="#CA4242"/>
<path d="M2335.26 7853.2V7852.4C2335.26 7833.73 2330.59 7819.2 2321.26 7808.8C2311.92 7798.13 2299.12 7789.73 2282.86 7783.6C2287.92 7780.93 2292.59 7777.73 2296.86 7774C2301.39 7770.27 2305.26 7766 2308.46 7761.2C2311.92 7756.13 2314.59 7750.53 2316.46 7744.4C2318.59 7738.27 2319.66 7731.2 2319.66 7723.2V7722.4C2319.66 7700.27 2311.39 7682.67 2294.86 7669.6C2278.59 7656.53 2256.06 7650 2227.26 7650H2097.26V7930H2230.46C2246.19 7930 2260.46 7928.4 2273.26 7925.2C2286.32 7922 2297.39 7917.2 2306.46 7910.8C2315.79 7904.4 2322.86 7896.4 2327.66 7886.8C2332.72 7877.2 2335.26 7866 2335.26 7853.2ZM2258.46 7733.6C2258.46 7744 2254.46 7751.6 2246.46 7756.4C2238.46 7760.93 2227.66 7763.2 2214.06 7763.2H2157.26V7704H2218.06C2231.12 7704 2241.12 7706.53 2248.06 7711.6C2254.99 7716.4 2258.46 7723.47 2258.46 7732.8V7733.6ZM2274.06 7845.6C2274.06 7856 2270.19 7863.73 2262.46 7868.8C2254.72 7873.6 2244.06 7876 2230.46 7876H2157.26V7814.4H2228.46C2244.46 7814.4 2256.06 7817.2 2263.26 7822.8C2270.46 7828.13 2274.06 7835.47 2274.06 7844.8V7845.6ZM2450.33 7930V7650H2388.73V7930H2450.33ZM2762.3 7930L2693.9 7830C2711.77 7823.33 2726.17 7812.93 2737.1 7798.8C2748.3 7784.4 2753.9 7765.87 2753.9 7743.2V7742.4C2753.9 7713.33 2744.57 7690.67 2725.9 7674.4C2707.5 7658.13 2681.64 7650 2648.3 7650H2520.3V7930H2581.9V7840.4H2630.3L2690.3 7930H2762.3ZM2691.5 7746.4C2691.5 7758.4 2687.37 7768 2679.1 7775.2C2671.1 7782.4 2659.5 7786 2644.3 7786H2581.9V7705.6H2643.1C2658.3 7705.6 2670.17 7708.93 2678.7 7715.6C2687.24 7722.27 2691.5 7732.27 2691.5 7745.6V7746.4ZM3021.37 7706.8V7650H2789.37V7706.8H2874.57V7930H2936.17V7706.8H3021.37ZM3305.54 7930V7650H3243.94V7760.8H3130.34V7650H3068.74V7930H3130.34V7817.6H3243.94V7930H3305.54ZM3777.77 7790V7789.2C3777.77 7769.2 3774.04 7750.53 3766.57 7733.2C3759.37 7715.6 3749.1 7700.4 3735.77 7687.6C3722.7 7674.53 3707.1 7664.27 3688.97 7656.8C3670.84 7649.07 3650.97 7645.2 3629.37 7645.2C3607.77 7645.2 3587.77 7649.07 3569.37 7656.8C3551.24 7664.27 3535.5 7674.67 3522.17 7688C3509.1 7701.07 3498.84 7716.4 3491.37 7734C3483.9 7751.33 3480.17 7770 3480.17 7790V7790.8C3480.17 7810.8 3483.77 7829.6 3490.97 7847.2C3498.44 7864.53 3508.7 7879.73 3521.77 7892.8C3535.1 7905.6 3550.84 7915.87 3568.97 7923.6C3587.1 7931.07 3606.97 7934.8 3628.57 7934.8C3650.17 7934.8 3670.04 7931.07 3688.17 7923.6C3706.57 7915.87 3722.3 7905.47 3735.37 7892.4C3748.7 7879.07 3759.1 7863.73 3766.57 7846.4C3774.04 7828.8 3777.77 7810 3777.77 7790ZM3713.37 7790.8C3713.37 7802.8 3711.24 7814.13 3706.97 7824.8C3702.97 7835.2 3697.24 7844.4 3689.77 7852.4C3682.57 7860.4 3673.77 7866.67 3663.37 7871.2C3652.97 7875.73 3641.64 7878 3629.37 7878C3616.84 7878 3605.37 7875.73 3594.97 7871.2C3584.84 7866.4 3575.9 7860 3568.17 7852C3560.7 7844 3554.84 7834.67 3550.57 7824C3546.57 7813.33 3544.57 7802 3544.57 7790V7789.2C3544.57 7777.2 3546.57 7766 3550.57 7755.6C3554.84 7744.93 3560.57 7735.6 3567.77 7727.6C3575.24 7719.6 3584.04 7713.33 3594.17 7708.8C3604.57 7704.27 3616.04 7702 3628.57 7702C3640.84 7702 3652.17 7704.4 3662.57 7709.2C3672.97 7713.73 3681.9 7720 3689.37 7728C3697.1 7736 3702.97 7745.33 3706.97 7756C3711.24 7766.67 3713.37 7778 3713.37 7790V7790.8ZM4045.61 7706V7650H3832.41V7930H3894.01V7821.6H4027.61V7765.6H3894.01V7706H4045.61ZM4487.63 7930L4367.63 7648H4310.83L4190.83 7930H4253.63L4279.23 7867.2H4397.63L4423.23 7930H4487.63ZM4375.63 7812.8H4301.23L4338.43 7722L4375.63 7812.8ZM4892.77 7930L4824.37 7830C4842.24 7823.33 4856.64 7812.93 4867.57 7798.8C4878.77 7784.4 4884.37 7765.87 4884.37 7743.2V7742.4C4884.37 7713.33 4875.04 7690.67 4856.37 7674.4C4837.97 7658.13 4812.11 7650 4778.77 7650H4650.77V7930H4712.37V7840.4H4760.77L4820.77 7930H4892.77ZM4821.97 7746.4C4821.97 7758.4 4817.84 7768 4809.57 7775.2C4801.57 7782.4 4789.97 7786 4774.77 7786H4712.37V7705.6H4773.57C4788.77 7705.6 4800.64 7708.93 4809.17 7715.6C4817.71 7722.27 4821.97 7732.27 4821.97 7745.6V7746.4ZM5179.43 7808V7650H5117.83V7810.4C5117.83 7832.8 5112.5 7849.6 5101.83 7860.8C5091.17 7872 5076.37 7877.6 5057.43 7877.6C5038.5 7877.6 5023.7 7871.87 5013.03 7860.4C5002.37 7848.67 4997.03 7831.33 4997.03 7808.4V7650H4935.43V7810C4935.43 7851.33 4946.23 7882.4 4967.83 7903.2C4989.43 7924 5019.03 7934.4 5056.63 7934.4C5075.3 7934.4 5092.23 7931.87 5107.43 7926.8C5122.63 7921.47 5135.57 7913.6 5146.23 7903.2C5156.9 7892.53 5165.03 7879.33 5170.63 7863.6C5176.5 7847.87 5179.43 7829.33 5179.43 7808ZM5480.18 7853.2V7852.4C5480.18 7833.73 5475.51 7819.2 5466.18 7808.8C5456.84 7798.13 5444.04 7789.73 5427.78 7783.6C5432.84 7780.93 5437.51 7777.73 5441.78 7774C5446.31 7770.27 5450.18 7766 5453.38 7761.2C5456.84 7756.13 5459.51 7750.53 5461.38 7744.4C5463.51 7738.27 5464.58 7731.2 5464.58 7723.2V7722.4C5464.58 7700.27 5456.31 7682.67 5439.78 7669.6C5423.51 7656.53 5400.98 7650 5372.18 7650H5242.18V7930H5375.38C5391.11 7930 5405.38 7928.4 5418.18 7925.2C5431.24 7922 5442.31 7917.2 5451.38 7910.8C5460.71 7904.4 5467.78 7896.4 5472.58 7886.8C5477.64 7877.2 5480.18 7866 5480.18 7853.2ZM5403.38 7733.6C5403.38 7744 5399.38 7751.6 5391.38 7756.4C5383.38 7760.93 5372.58 7763.2 5358.98 7763.2H5302.18V7704H5362.98C5376.04 7704 5386.04 7706.53 5392.98 7711.6C5399.91 7716.4 5403.38 7723.47 5403.38 7732.8V7733.6ZM5418.98 7845.6C5418.98 7856 5415.11 7863.73 5407.38 7868.8C5399.64 7873.6 5388.98 7876 5375.38 7876H5302.18V7814.4H5373.38C5389.38 7814.4 5400.98 7817.2 5408.18 7822.8C5415.38 7828.13 5418.98 7835.47 5418.98 7844.8V7845.6ZM5595.25 7930V7650H5533.65V7930H5595.25ZM5920.03 7930L5800.83 7768.8L5914.83 7650H5840.43L5726.83 7772.4V7650H5665.23V7930H5726.83V7844.4L5759.23 7810.8L5846.03 7930H5920.03ZM5936.21 7753.6L5941.41 7778.8C5965.15 7778.53 5983.41 7772.67 5996.21 7761.2C6009.01 7749.47 6015.41 7730.4 6015.41 7704V7650H5950.61V7714H5975.41C5977.55 7737.47 5964.48 7750.67 5936.21 7753.6ZM6274.27 7847.2V7846.4C6274.27 7834.13 6272.27 7823.6 6268.27 7814.8C6264.53 7806 6258.8 7798.4 6251.07 7792C6243.6 7785.33 6234.27 7779.73 6223.07 7775.2C6212.13 7770.4 6199.6 7766.13 6185.47 7762.4C6173.47 7759.2 6163.47 7756.4 6155.47 7754C6147.73 7751.6 6141.6 7749.07 6137.07 7746.4C6132.53 7743.73 6129.33 7740.8 6127.47 7737.6C6125.87 7734.13 6125.07 7730.13 6125.07 7725.6V7724.8C6125.07 7717.87 6128 7712.13 6133.87 7707.6C6140 7702.8 6149.07 7700.4 6161.07 7700.4C6173.07 7700.4 6185.07 7702.93 6197.07 7708C6209.07 7712.8 6221.33 7719.47 6233.87 7728L6265.87 7681.6C6251.47 7670.13 6235.6 7661.33 6218.27 7655.2C6201.2 7649.07 6182.4 7646 6161.87 7646C6147.47 7646 6134.27 7648 6122.27 7652C6110.27 7656 6099.87 7661.73 6091.07 7669.2C6082.53 7676.67 6075.87 7685.6 6071.07 7696C6066.27 7706.13 6063.87 7717.6 6063.87 7730.4V7731.2C6063.87 7745.07 6066 7756.67 6070.27 7766C6074.8 7775.33 6081.07 7783.2 6089.07 7789.6C6097.07 7795.73 6106.8 7800.93 6118.27 7805.2C6129.73 7809.47 6142.53 7813.33 6156.67 7816.8C6168.4 7819.73 6177.87 7822.53 6185.07 7825.2C6192.53 7827.87 6198.27 7830.53 6202.27 7833.2C6206.53 7835.87 6209.33 7838.8 6210.67 7842C6212.27 7844.93 6213.07 7848.4 6213.07 7852.4V7853.2C6213.07 7861.47 6209.47 7868 6202.27 7872.8C6195.33 7877.33 6185.47 7879.6 6172.67 7879.6C6156.67 7879.6 6141.87 7876.53 6128.27 7870.4C6114.93 7864.27 6101.87 7856 6089.07 7845.6L6052.67 7889.2C6069.47 7904.4 6088.13 7915.73 6108.67 7923.2C6129.2 7930.4 6150.13 7934 6171.47 7934C6186.67 7934 6200.53 7932.13 6213.07 7928.4C6225.6 7924.4 6236.4 7918.8 6245.47 7911.6C6254.53 7904.13 6261.6 7895.07 6266.67 7884.4C6271.73 7873.47 6274.27 7861.07 6274.27 7847.2ZM6693.65 7884.8L6654.45 7845.2C6643.51 7855.33 6632.45 7863.33 6621.25 7869.2C6610.31 7875.07 6596.85 7878 6580.85 7878C6568.85 7878 6557.78 7875.73 6547.65 7871.2C6537.78 7866.4 6529.25 7860 6522.05 7852C6515.11 7844 6509.65 7834.67 6505.65 7824C6501.65 7813.33 6499.65 7802 6499.65 7790V7789.2C6499.65 7777.2 6501.65 7766 6505.65 7755.6C6509.65 7744.93 6515.25 7735.6 6522.45 7727.6C6529.65 7719.6 6538.18 7713.33 6548.05 7708.8C6558.18 7704.27 6569.11 7702 6580.85 7702C6594.98 7702 6607.65 7704.8 6618.85 7710.4C6630.31 7716 6641.51 7723.73 6652.45 7733.6L6691.65 7688.4C6685.25 7682 6678.31 7676.13 6670.85 7670.8C6663.38 7665.47 6655.25 7660.93 6646.45 7657.2C6637.65 7653.47 6627.78 7650.53 6616.85 7648.4C6606.18 7646.27 6594.31 7645.2 6581.25 7645.2C6559.65 7645.2 6539.91 7649.07 6522.05 7656.8C6504.18 7664.27 6488.85 7674.67 6476.05 7688C6463.25 7701.07 6453.25 7716.4 6446.05 7734C6438.85 7751.33 6435.25 7770 6435.25 7790V7790.8C6435.25 7810.8 6438.85 7829.6 6446.05 7847.2C6453.25 7864.8 6463.25 7880.13 6476.05 7893.2C6488.85 7906 6504.05 7916.13 6521.65 7923.6C6539.25 7931.07 6558.31 7934.8 6578.85 7934.8C6592.45 7934.8 6604.71 7933.6 6615.65 7931.2C6626.58 7929.07 6636.58 7925.87 6645.65 7921.6C6654.98 7917.07 6663.51 7911.73 6671.25 7905.6C6678.98 7899.47 6686.45 7892.53 6693.65 7884.8ZM6982.56 7808V7650H6920.96V7810.4C6920.96 7832.8 6915.63 7849.6 6904.96 7860.8C6894.29 7872 6879.49 7877.6 6860.56 7877.6C6841.63 7877.6 6826.83 7871.87 6816.16 7860.4C6805.49 7848.67 6800.16 7831.33 6800.16 7808.4V7650H6738.56V7810C6738.56 7851.33 6749.36 7882.4 6770.96 7903.2C6792.56 7924 6822.16 7934.4 6859.76 7934.4C6878.43 7934.4 6895.36 7931.87 6910.56 7926.8C6925.76 7921.47 6938.69 7913.6 6949.36 7903.2C6960.03 7892.53 6968.16 7879.33 6973.76 7863.6C6979.63 7847.87 6982.56 7829.33 6982.56 7808ZM7283.3 7853.2V7852.4C7283.3 7833.73 7278.64 7819.2 7269.3 7808.8C7259.97 7798.13 7247.17 7789.73 7230.9 7783.6C7235.97 7780.93 7240.64 7777.73 7244.9 7774C7249.44 7770.27 7253.3 7766 7256.5 7761.2C7259.97 7756.13 7262.64 7750.53 7264.5 7744.4C7266.64 7738.27 7267.7 7731.2 7267.7 7723.2V7722.4C7267.7 7700.27 7259.44 7682.67 7242.9 7669.6C7226.64 7656.53 7204.1 7650 7175.3 7650H7045.3V7930H7178.5C7194.24 7930 7208.5 7928.4 7221.3 7925.2C7234.37 7922 7245.44 7917.2 7254.5 7910.8C7263.84 7904.4 7270.9 7896.4 7275.7 7886.8C7280.77 7877.2 7283.3 7866 7283.3 7853.2ZM7206.5 7733.6C7206.5 7744 7202.5 7751.6 7194.5 7756.4C7186.5 7760.93 7175.7 7763.2 7162.1 7763.2H7105.3V7704H7166.1C7179.17 7704 7189.17 7706.53 7196.1 7711.6C7203.04 7716.4 7206.5 7723.47 7206.5 7732.8V7733.6ZM7222.1 7845.6C7222.1 7856 7218.24 7863.73 7210.5 7868.8C7202.77 7873.6 7192.1 7876 7178.5 7876H7105.3V7814.4H7176.5C7192.5 7814.4 7204.1 7817.2 7211.3 7822.8C7218.5 7828.13 7222.1 7835.47 7222.1 7844.8V7845.6ZM7547.18 7930V7875.2H7395.18V7816.4H7527.18V7761.6H7395.18V7704.8H7545.18V7650H7333.98V7930H7547.18Z" fill="#3D3E44"/>
<path d="M7679.37 8600H7654.76V8536.82H7591.18V8600H7566.48V8457.81H7591.18V8516.99H7654.76V8457.81H7679.37V8600ZM7769.5 8600C7768.46 8597.98 7767.55 8594.69 7766.77 8590.14C7759.22 8598.01 7749.97 8601.95 7739.04 8601.95C7728.42 8601.95 7719.76 8598.93 7713.06 8592.87C7706.35 8586.82 7703 8579.33 7703 8570.41C7703 8559.15 7707.17 8550.52 7715.5 8544.53C7723.9 8538.48 7735.88 8535.45 7751.44 8535.45H7765.99V8528.52C7765.99 8523.05 7764.46 8518.68 7761.4 8515.43C7758.34 8512.11 7753.68 8510.45 7747.43 8510.45C7742.03 8510.45 7737.6 8511.82 7734.15 8514.55C7730.7 8517.22 7728.98 8520.64 7728.98 8524.8H7705.25C7705.25 8519.01 7707.17 8513.61 7711.01 8508.59C7714.85 8503.52 7720.06 8499.54 7726.63 8496.68C7733.27 8493.82 7740.66 8492.38 7748.8 8492.38C7761.17 8492.38 7771.03 8495.51 7778.39 8501.76C7785.75 8507.94 7789.52 8516.67 7789.72 8527.93V8575.59C7789.72 8585.09 7791.05 8592.68 7793.72 8598.34V8600H7769.5ZM7743.43 8582.91C7748.12 8582.91 7752.51 8581.77 7756.61 8579.49C7760.78 8577.21 7763.9 8574.15 7765.99 8570.31V8550.39H7753.2C7744.41 8550.39 7737.8 8551.92 7733.37 8554.98C7728.94 8558.04 7726.73 8562.37 7726.73 8567.97C7726.73 8572.53 7728.23 8576.17 7731.22 8578.91C7734.28 8581.58 7738.35 8582.91 7743.43 8582.91ZM7869.89 8516.02C7866.77 8515.49 7863.55 8515.23 7860.23 8515.23C7849.35 8515.23 7842.03 8519.4 7838.25 8527.73V8600H7814.52V8494.34H7837.18L7837.77 8506.15C7843.49 8496.97 7851.44 8492.38 7861.59 8492.38C7864.98 8492.38 7867.78 8492.84 7869.99 8493.75L7869.89 8516.02ZM7948.9 8589.65C7941.93 8597.85 7932.04 8601.95 7919.21 8601.95C7907.75 8601.95 7899.06 8598.6 7893.14 8591.89C7887.28 8585.19 7884.35 8575.49 7884.35 8562.79V8494.34H7908.08V8562.5C7908.08 8575.91 7913.64 8582.62 7924.78 8582.62C7936.3 8582.62 7944.08 8578.48 7948.12 8570.21V8494.34H7971.85V8600H7949.48L7948.9 8589.65ZM8018.33 8494.34L8019.02 8505.37C8026.44 8496.71 8036.59 8492.38 8049.48 8492.38C8063.61 8492.38 8073.28 8497.79 8078.49 8508.59C8086.17 8497.79 8096.98 8492.38 8110.91 8492.38C8122.56 8492.38 8131.22 8495.61 8136.89 8502.05C8142.62 8508.5 8145.55 8518 8145.68 8530.57V8600H8121.95V8531.25C8121.95 8524.54 8120.48 8519.63 8117.55 8516.5C8114.62 8513.38 8109.77 8511.82 8103 8511.82C8097.6 8511.82 8093.17 8513.28 8089.72 8516.21C8086.33 8519.08 8083.96 8522.85 8082.59 8527.54L8082.69 8600H8058.96V8530.47C8058.63 8518.03 8052.28 8511.82 8039.91 8511.82C8030.41 8511.82 8023.67 8515.69 8019.7 8523.44V8600H7995.97V8494.34H8018.33ZM8195.29 8600H8171.55V8494.34H8195.29V8600ZM8170.09 8466.89C8170.09 8463.25 8171.23 8460.22 8173.51 8457.81C8175.85 8455.4 8179.17 8454.2 8183.47 8454.2C8187.77 8454.2 8191.09 8455.4 8193.43 8457.81C8195.77 8460.22 8196.95 8463.25 8196.95 8466.89C8196.95 8470.48 8195.77 8473.47 8193.43 8475.88C8191.09 8478.22 8187.77 8479.39 8183.47 8479.39C8179.17 8479.39 8175.85 8478.22 8173.51 8475.88C8171.23 8473.47 8170.09 8470.48 8170.09 8466.89ZM8331.52 8457.81H8356.12V8557.52C8356.12 8571.13 8351.86 8581.93 8343.33 8589.94C8334.87 8597.95 8323.67 8601.95 8309.74 8601.95C8294.89 8601.95 8283.44 8598.21 8275.36 8590.72C8267.29 8583.24 8263.25 8572.82 8263.25 8559.47H8287.86C8287.86 8567.02 8289.72 8572.72 8293.43 8576.56C8297.21 8580.34 8302.64 8582.23 8309.74 8582.23C8316.38 8582.23 8321.65 8580.05 8325.56 8575.68C8329.53 8571.26 8331.52 8565.17 8331.52 8557.42V8457.81ZM8445.29 8600C8444.24 8597.98 8443.33 8594.69 8442.55 8590.14C8435 8598.01 8425.75 8601.95 8414.82 8601.95C8404.2 8601.95 8395.55 8598.93 8388.84 8592.87C8382.13 8586.82 8378.78 8579.33 8378.78 8570.41C8378.78 8559.15 8382.95 8550.52 8391.28 8544.53C8399.68 8538.48 8411.66 8535.45 8427.22 8535.45H8441.77V8528.52C8441.77 8523.05 8440.24 8518.68 8437.18 8515.43C8434.12 8512.11 8429.46 8510.45 8423.21 8510.45C8417.81 8510.45 8413.38 8511.82 8409.93 8514.55C8406.48 8517.22 8404.76 8520.64 8404.76 8524.8H8381.03C8381.03 8519.01 8382.95 8513.61 8386.79 8508.59C8390.63 8503.52 8395.84 8499.54 8402.41 8496.68C8409.05 8493.82 8416.44 8492.38 8424.58 8492.38C8436.95 8492.38 8446.82 8495.51 8454.17 8501.76C8461.53 8507.94 8465.3 8516.67 8465.5 8527.93V8575.59C8465.5 8585.09 8466.83 8592.68 8469.5 8598.34V8600H8445.29ZM8419.21 8582.91C8423.9 8582.91 8428.29 8581.77 8432.39 8579.49C8436.56 8577.21 8439.69 8574.15 8441.77 8570.31V8550.39H8428.98C8420.19 8550.39 8413.58 8551.92 8409.15 8554.98C8404.73 8558.04 8402.51 8562.37 8402.51 8567.97C8402.51 8572.53 8404.01 8576.17 8407 8578.91C8410.06 8581.58 8414.13 8582.91 8419.21 8582.91ZM8512.38 8494.34L8513.06 8506.54C8520.87 8497.1 8531.12 8492.38 8543.82 8492.38C8565.83 8492.38 8577.02 8504.98 8577.41 8530.18V8600H8553.68V8531.54C8553.68 8524.84 8552.22 8519.89 8549.29 8516.7C8546.42 8513.44 8541.7 8511.82 8535.13 8511.82C8525.56 8511.82 8518.43 8516.15 8513.74 8524.8V8600H8490.01V8494.34H8512.38ZM8597.53 8546.39C8597.53 8529.98 8601.37 8516.89 8609.05 8507.13C8616.8 8497.3 8627.06 8492.38 8639.82 8492.38C8651.86 8492.38 8661.33 8496.58 8668.23 8504.98L8669.31 8494.34H8690.7V8596.78C8690.7 8610.64 8686.37 8621.58 8677.71 8629.59C8669.11 8637.6 8657.49 8641.6 8642.84 8641.6C8635.1 8641.6 8627.51 8639.97 8620.09 8636.72C8612.73 8633.53 8607.13 8629.33 8603.29 8624.12L8614.52 8609.86C8621.82 8618.52 8630.8 8622.85 8641.48 8622.85C8649.35 8622.85 8655.57 8620.7 8660.13 8616.41C8664.69 8612.17 8666.96 8605.92 8666.96 8597.66V8590.53C8660.13 8598.14 8651.01 8601.95 8639.62 8601.95C8627.25 8601.95 8617.13 8597.04 8609.25 8587.21C8601.44 8577.38 8597.53 8563.77 8597.53 8546.39ZM8621.16 8548.44C8621.16 8559.05 8623.31 8567.42 8627.61 8573.54C8631.97 8579.59 8637.99 8582.62 8645.68 8582.62C8655.25 8582.62 8662.34 8578.52 8666.96 8570.31V8523.83C8662.47 8515.82 8655.44 8511.82 8645.87 8511.82C8638.06 8511.82 8631.97 8514.91 8627.61 8521.09C8623.31 8527.28 8621.16 8536.39 8621.16 8548.44ZM7940.21 8834H7915.5L7852.12 8733.12V8834H7827.41V8691.81H7852.12L7915.7 8793.08V8691.81H7940.21V8834ZM8052.51 8770.52H7994.11V8814.27H8062.38V8834H7969.41V8691.81H8061.69V8711.73H7994.11V8750.99H8052.51V8770.52ZM8186.5 8691.81V8786.83C8186.5 8801.94 8181.65 8813.92 8171.95 8822.77C8162.31 8831.56 8149.45 8835.95 8133.37 8835.95C8117.1 8835.95 8104.17 8831.62 8094.6 8822.96C8085.03 8814.24 8080.25 8802.16 8080.25 8786.73V8691.81H8104.86V8786.93C8104.86 8796.43 8107.26 8803.69 8112.08 8808.71C8116.9 8813.72 8124 8816.23 8133.37 8816.23C8152.38 8816.23 8161.89 8806.2 8161.89 8786.15V8691.81H8186.5ZM8354.56 8834H8258.96V8817.69L8306.32 8766.03C8313.16 8758.41 8318.01 8752.07 8320.87 8746.99C8323.8 8741.85 8325.27 8736.7 8325.27 8731.56C8325.27 8724.79 8323.35 8719.32 8319.5 8715.15C8315.73 8710.99 8310.62 8708.9 8304.17 8708.9C8296.49 8708.9 8290.53 8711.25 8286.3 8715.93C8282.07 8720.62 8279.95 8727.03 8279.95 8735.17H8256.22C8256.22 8726.51 8258.18 8718.73 8262.08 8711.83C8266.05 8704.87 8271.68 8699.46 8278.98 8695.62C8286.33 8691.78 8294.8 8689.86 8304.37 8689.86C8318.17 8689.86 8329.04 8693.34 8336.98 8700.31C8344.99 8707.21 8349 8716.78 8349 8729.02C8349 8736.12 8346.98 8743.57 8342.94 8751.38C8338.97 8759.13 8332.43 8767.95 8323.31 8777.85L8288.55 8815.05H8354.56V8834ZM8465.3 8774.14C8465.3 8794.58 8461.46 8810.01 8453.78 8820.43C8446.16 8830.78 8434.54 8835.95 8418.92 8835.95C8403.55 8835.95 8391.96 8830.91 8384.15 8820.82C8376.4 8810.66 8372.43 8795.65 8372.24 8775.8V8751.19C8372.24 8730.74 8376.05 8715.41 8383.66 8705.19C8391.35 8694.97 8403.03 8689.86 8418.72 8689.86C8434.28 8689.86 8445.87 8694.84 8453.49 8704.8C8461.17 8714.76 8465.11 8729.67 8465.3 8749.53V8774.14ZM8441.57 8747.57C8441.57 8734.23 8439.75 8724.46 8436.11 8718.28C8432.46 8712.03 8426.67 8708.9 8418.72 8708.9C8410.98 8708.9 8405.28 8711.86 8401.63 8717.79C8397.99 8723.65 8396.07 8732.83 8395.87 8745.33V8777.55C8395.87 8790.84 8397.73 8800.73 8401.44 8807.24C8405.15 8813.75 8410.98 8817.01 8418.92 8817.01C8426.54 8817.01 8432.17 8814.01 8435.81 8808.02C8439.46 8801.97 8441.38 8792.53 8441.57 8779.7V8747.57ZM8581.91 8834H8486.3V8817.69L8533.66 8766.03C8540.5 8758.41 8545.35 8752.07 8548.21 8746.99C8551.14 8741.85 8552.61 8736.7 8552.61 8731.56C8552.61 8724.79 8550.69 8719.32 8546.85 8715.15C8543.07 8710.99 8537.96 8708.9 8531.52 8708.9C8523.83 8708.9 8517.88 8711.25 8513.64 8715.93C8509.41 8720.62 8507.3 8727.03 8507.3 8735.17H8483.57C8483.57 8726.51 8485.52 8718.73 8489.43 8711.83C8493.4 8704.87 8499.03 8699.46 8506.32 8695.62C8513.68 8691.78 8522.14 8689.86 8531.71 8689.86C8545.51 8689.86 8556.39 8693.34 8564.33 8700.31C8572.34 8707.21 8576.34 8716.78 8576.34 8729.02C8576.34 8736.12 8574.32 8743.57 8570.29 8751.38C8566.31 8759.13 8559.77 8767.95 8550.66 8777.85L8515.89 8815.05H8581.91V8834ZM8664.23 8834H8640.6V8719.84L8605.73 8731.75V8711.73L8661.2 8691.32H8664.23V8834Z" fill="white"/>
<path d="M4624.74 3640.41L4506 3664.74L4530.35 3708.91L4651.71 3680.67L4681.68 3731L4730 3640.41L4603.39 3594L4624.74 3640.41Z" fill="black" fill-opacity="0.26"/>
<path d="M2994.21 5038.08C2888 4953.29 2704.33 4792.98 2704.33 4792.98C2789.45 4769.82 2827.99 4759.33 2858.99 4655.11C2858.99 4655.11 3005.46 4753.08 3109.34 4841.69C3069.45 4904.18 3078.04 4866.18 2994.21 5038.08Z" fill="#4EBD7A"/>
<path d="M2991.27 4878.4C3108.98 4790.78 3310.08 4650.58 3310.08 4650.58C3359.18 4713.39 3385.94 4727.55 3526.91 4742.32C3526.91 4742.32 3317.82 4870.07 3195.55 4955.97C3068.7 4900.69 3150.45 4955.97 2991.27 4878.4Z" fill="#4EBD7A"/>
<path d="M3080.59 4853.54C3180.88 4922.18 3402.28 5056.63 3402.28 5056.63C3385.62 5103.27 3382.23 5110.87 3328.53 5217.56C3328.53 5217.56 3126.75 5064.39 3026.38 4991.88C3044.83 4931.91 3033.4 4963.97 3080.59 4853.54Z" fill="#4EBD7A"/>
<path d="M3021.5 4886.16C2928.56 4943.38 2721.16 5054.65 2721.16 5054.65C2744.12 5096.29 2748.54 5103.1 2816.89 5198.89C2816.89 5198.89 3001.94 5070.48 3094.46 5009.85C3067.96 4956.4 3083.72 4985.03 3021.5 4886.16Z" fill="#4EBD7A"/>
<path d="M2702.17 4618.53C2682.93 4625.05 2663.12 4645.63 2657.92 4664.51L2631.87 4759.05C2626.67 4777.92 2638.05 4787.94 2657.29 4781.42L2753.64 4748.78C2772.88 4742.26 2792.69 4721.68 2797.89 4702.8L2823.94 4608.26C2829.14 4589.39 2817.76 4579.37 2798.53 4585.89L2702.17 4618.53Z" fill="url(#paint6_linear)" fill-opacity="0.85"/>
<path d="M2887.51 4651.16L2821.39 4589.18L2793.48 4692.13C2786.99 4716.04 2768.16 4735.68 2743.79 4743.94L2636.05 4780.42L2705.07 4840.52C2714.55 4848.78 2728.26 4851.19 2740.88 4846.81L2846.59 4810.09C2858.85 4805.83 2868.25 4795.8 2871.3 4783.69L2896.65 4683.14C2899.63 4671.36 2896.17 4659.28 2887.51 4651.16Z" fill="#3D3E44"/>
<ellipse rx="45.3289" ry="45.1901" transform="matrix(0.388213 -0.90711 0.939336 -0.385682 2724.56 4680)" fill="#C4C4C4"/>
<ellipse rx="30.8791" ry="30.7845" transform="matrix(0.388213 -0.90711 0.939336 -0.385682 2710.84 4667.48)" fill="#C4C4C4"/>
<path d="M2720.89 4644.01C2734.25 4638.52 2740.61 4644.56 2735.06 4657.54C2729.51 4670.52 2714.16 4685.47 2700.79 4690.96C2687.43 4696.44 2681.07 4690.4 2686.62 4677.43C2692.17 4664.45 2707.52 4649.49 2720.89 4644.01Z" stroke="black" stroke-opacity="0.2" stroke-width="10"/>
<path d="M3528.26 4619.22C3522.52 4600.34 3501.07 4582.02 3480.35 4578.31L3376.56 4559.7C3355.84 4555.99 3343.7 4568.28 3349.44 4587.16L3378.18 4681.71C3383.92 4700.59 3405.37 4718.91 3426.09 4722.62L3529.87 4741.22C3550.59 4744.94 3562.74 4732.65 3557 4713.77L3528.26 4619.22Z" fill="url(#paint7_linear)" fill-opacity="0.85"/>
<path d="M3476.68 4808.72L3551.53 4737.03L3438.39 4717.26C3412.11 4712.66 3391.62 4695.27 3384.35 4671.38L3352.21 4565.73L3279.23 4640.19C3269.2 4650.42 3265.39 4664.44 3269.28 4676.8L3301.84 4780.38C3305.62 4792.4 3316.11 4801.05 3329.44 4803.15L3440.08 4820.54C3453.05 4822.58 3466.87 4818.11 3476.68 4808.72Z" fill="#3D3E44"/>
<ellipse rx="45.6497" ry="45.9037" transform="matrix(0.972619 0.318117 0.348132 0.906901 3457.59 4646.79)" fill="#C4C4C4"/>
<ellipse rx="31.0976" ry="31.2706" transform="matrix(0.972618 0.318117 0.348132 0.906901 3472.73 4631.94)" fill="#C4C4C4"/>
<path d="M3498.12 4640.25C3503.18 4653.43 3495.87 4660.35 3481.88 4655.77C3467.88 4651.19 3452.41 4636.82 3447.35 4623.64C3442.29 4610.46 3449.59 4603.54 3463.59 4608.12C3477.58 4612.7 3493.06 4627.07 3498.12 4640.25Z" stroke="black" stroke-opacity="0.2" stroke-width="10"/>
<path d="M3483.21 5185.34C3477.96 5203.61 3458.31 5223.89 3439.3 5230.63L3344.12 5264.42C3325.11 5271.17 3313.95 5261.83 3319.2 5243.56L3345.45 5152.08C3350.7 5133.81 3370.35 5113.54 3389.36 5106.79L3484.55 5073C3503.55 5066.25 3514.71 5075.59 3509.47 5093.86L3483.21 5185.34Z" fill="url(#paint8_linear)" fill-opacity="0.85"/>
<path d="M3435.65 5019.43L3504.34 5073.3L3400.66 5109.69C3376.58 5118.14 3357.82 5137.43 3351.19 5160.56L3321.84 5262.87L3254.86 5206.15C3245.66 5198.36 3242.15 5186.09 3245.7 5174.09L3275.43 5073.62C3278.88 5061.96 3288.48 5052.32 3300.7 5048.25L3402.09 5014.45C3413.98 5010.49 3426.65 5012.37 3435.65 5019.43Z" fill="#3D3E44"/>
<ellipse rx="44.6684" ry="44.4578" transform="matrix(0.917211 -0.456992 0.330992 -0.912905 3418.34 5171.38)" fill="#C4C4C4"/>
<ellipse rx="30.4291" ry="30.2857" transform="matrix(0.917211 -0.456992 0.330992 -0.912905 3432.24 5182.6)" fill="#C4C4C4"/>
<path d="M3455.56 5170.98C3460.18 5158.25 3453.51 5153.09 3440.61 5159.51C3427.71 5165.94 3413.53 5181.49 3408.92 5194.22C3404.3 5206.95 3410.97 5212.11 3423.87 5205.68C3436.77 5199.25 3450.95 5183.71 3455.56 5170.98Z" stroke="black" stroke-opacity="0.2" stroke-width="10"/>
<path d="M2687.48 5188.59C2692.74 5205.38 2711.52 5221.94 2729.43 5225.58L2819.12 5243.78C2837.03 5247.41 2847.28 5236.74 2842.02 5219.95L2815.67 5135.85C2810.41 5119.06 2791.63 5102.5 2773.72 5098.87L2684.03 5080.67C2666.12 5077.03 2655.87 5087.7 2661.13 5104.49L2687.48 5188.59Z" fill="url(#paint9_linear)" fill-opacity="0.85"/>
<path d="M2728.7 5021.85L2665.47 5084L2763.22 5103.4C2785.92 5107.9 2803.86 5123.64 2810.52 5144.89L2839.98 5238.88L2901.56 5174.25C2910.02 5165.37 2913.07 5153.04 2909.51 5142.03L2879.72 5049.87C2876.26 5039.17 2867.09 5031.34 2855.58 5029.27L2760.02 5012.02C2748.81 5009.99 2736.99 5013.71 2728.7 5021.85Z" fill="#3D3E44"/>
<ellipse rx="40.3021" ry="40.4313" transform="matrix(-0.956096 -0.33658 -0.358338 -0.915967 2747.87 5165.4)" fill="#C4C4C4"/>
<ellipse rx="27.4547" ry="27.5427" transform="matrix(-0.956096 -0.33658 -0.358339 -0.915967 2735.09 5178.27)" fill="#C4C4C4"/>
<path d="M2713.62 5170.72C2709.15 5159.3 2715.17 5153.46 2727.01 5157.63C2738.85 5161.79 2752.09 5174.41 2756.56 5185.83C2761.02 5197.25 2755.01 5203.09 2743.16 5198.92C2731.32 5194.75 2718.08 5182.13 2713.62 5170.72Z" stroke="black" stroke-opacity="0.2" stroke-width="10"/>
<path d="M3032.6 5393.78C3048.97 5402.04 3076.38 5401.47 3093.84 5392.52L3181.26 5347.69C3198.71 5338.74 3199.59 5324.8 3183.23 5316.55L3101.26 5275.22C3084.9 5266.97 3057.48 5267.53 3040.03 5276.48L2952.61 5321.31C2935.16 5330.26 2934.27 5344.21 2950.64 5352.46L3032.6 5393.78Z" fill="url(#paint10_linear)" fill-opacity="0.6"/>
<path d="M2947.61 5251.98L2939.59 5335.47L3034.53 5286.34C3056.58 5274.92 3082.71 5274.33 3103.43 5284.78L3195.05 5330.98L3199.93 5246.84C3200.6 5235.27 3194.31 5224.79 3183.49 5219.45L3092.9 5174.72C3082.39 5169.53 3069.18 5169.98 3058.15 5175.91L2966.55 5225.13C2955.82 5230.9 2948.67 5241.04 2947.61 5251.98Z" fill="#3D3E44"/>
<ellipse rx="41.9323" ry="41.9323" transform="matrix(-0.994403 0.366118 -0.917198 -0.388317 3066.13 5339.07)" fill="#C4C4C4"/>
<ellipse rx="28.5652" ry="28.5652" transform="matrix(-0.994403 0.366118 -0.917198 -0.388316 3064.73 5356.17)" fill="#C4C4C4"/>
<path d="M3041.3 5364.79C3029.36 5359.74 3030.17 5351.78 3043.12 5347.02C3056.06 5342.25 3076.23 5342.49 3088.16 5347.54C3100.1 5352.59 3099.29 5360.55 3086.34 5365.32C3073.4 5370.08 3053.23 5369.85 3041.3 5364.79Z" stroke="black" stroke-opacity="0.2" stroke-width="10"/>
<g filter="url(#filter0_d)">
<path d="M3660.26 4520.64C3653.4 4501.44 3630.81 4484.64 3609.8 4483.11L3504.61 4475.46C3483.6 4473.93 3472.14 4488.26 3479.01 4507.45L3513.39 4603.61C3520.25 4622.81 3542.84 4639.62 3563.85 4641.14L3669.04 4648.8C3690.05 4650.32 3701.51 4636 3694.64 4616.8L3660.26 4520.64Z" fill="#3A3A3A"/>
</g>
<g filter="url(#filter1_d)">
<path d="M2552.83 4544.36C2531.14 4551.45 2507.37 4573.76 2499.75 4594.19L2461.57 4696.52C2453.95 4716.95 2465.36 4727.77 2487.05 4720.68L2595.71 4685.2C2617.4 4678.11 2641.16 4655.81 2648.79 4635.37L2686.96 4533.04C2694.58 4512.61 2683.17 4501.79 2661.48 4508.88L2552.83 4544.36Z" fill="#3A3A3A"/>
</g>
<g filter="url(#filter2_d)">
<path d="M3511.73 5222.42C3492.23 5233.82 3470.31 5255.84 3462.79 5271.59L3425.09 5350.5C3417.56 5366.25 3427.27 5369.78 3446.78 5358.38L3544.47 5301.28C3563.98 5289.87 3585.89 5267.86 3593.42 5252.11L3631.12 5173.2C3638.64 5157.44 3628.93 5153.92 3609.43 5165.32L3511.73 5222.42Z" fill="#3A3A3A"/>
</g>
<g filter="url(#filter3_d)">
<path d="M2633.15 5220.32C2654.25 5228.77 2679.31 5247.41 2689.13 5261.94L2738.29 5334.72C2748.11 5349.26 2738.96 5354.18 2717.86 5345.73L2612.2 5303.38C2591.1 5294.93 2566.04 5276.29 2556.22 5261.76L2507.06 5188.98C2497.24 5174.44 2506.39 5169.52 2527.49 5177.97L2633.15 5220.32Z" fill="#3A3A3A"/>
</g>
<g filter="url(#filter4_d)">
<path d="M3053.04 5503.76C3075.79 5506.73 3107.16 5502.81 3123.11 5495.02L3202.96 5455.99C3218.9 5448.2 3213.38 5439.47 3190.62 5436.5L3076.65 5421.64C3053.89 5418.68 3022.52 5422.59 3006.58 5430.38L2926.72 5469.41C2910.78 5477.21 2916.3 5485.93 2939.06 5488.9L3053.04 5503.76Z" fill="#3A3A3A"/>
</g>
<path d="M2991.38 4912.64V4654.55C2971.47 4609.53 3174.29 4608.19 3160.31 4652.38L3154.27 4912.64C3128.56 4943.86 3021.78 4946.35 2991.38 4912.64Z" fill="#50F090"/>
<path d="M3109.41 4529.67C3091.42 4520.54 3062.29 4520.67 3044.35 4529.97L2954.49 4576.56C2936.54 4585.87 2936.59 4600.82 2954.58 4609.95L3044.7 4655.73C3062.7 4664.86 3091.83 4664.73 3109.77 4655.43L3199.63 4608.84C3217.58 4599.53 3217.53 4584.58 3199.54 4575.45L3109.41 4529.67Z" fill="url(#paint11_linear)" fill-opacity="0.85"/>
<path d="M3209.87 4683.37L3212.49 4593.92L3114.95 4644.97C3092.29 4656.82 3064.54 4656.99 3041.75 4645.41L2940.98 4594.21L2941.76 4684.43C2941.86 4696.83 2949.3 4708.19 2961.19 4714.11L3060.76 4763.72C3072.31 4769.47 3086.33 4769.22 3097.65 4763.05L3191.63 4711.85C3202.64 4705.85 3209.53 4695.1 3209.87 4683.37Z" fill="#3D3E44"/>
<ellipse rx="46.0487" ry="45.8237" transform="matrix(0.941342 -0.344637 0.91675 0.393337 3077.59 4587.81)" fill="#C4C4C4"/>
<ellipse rx="31.3694" ry="31.2162" transform="matrix(0.941342 -0.344637 0.91675 0.393337 3077.87 4569.49)" fill="#C4C4C4"/>
<path d="M3102.69 4560.4C3115.94 4566.09 3115.63 4574.77 3101.9 4579.8C3088.17 4584.83 3066.3 4584.26 3053.04 4578.58C3039.79 4572.89 3040.1 4564.2 3053.83 4559.18C3067.56 4554.15 3089.44 4554.72 3102.69 4560.4Z" stroke="black" stroke-opacity="0.2" stroke-width="10"/>
<g filter="url(#filter5_d)">
<path d="M3099.94 4415.98C3077.68 4410.6 3046.04 4411.15 3029.27 4417.19L2945.28 4447.47C2928.51 4453.51 2932.96 4462.77 2955.22 4468.14L3066.73 4495.04C3088.99 4500.41 3120.63 4499.87 3137.4 4493.82L3221.39 4463.55C3238.16 4457.5 3233.71 4448.25 3211.45 4442.88L3099.94 4415.98Z" fill="#3A3A3A"/>
</g>
<path d="M6256.79 3518.71V3388.44C6245.38 3365.72 6361.62 3365.04 6353.6 3387.34L6350.14 3518.71C6335.41 3534.46 6274.21 3535.72 6256.79 3518.71Z" fill="#50F090"/>
<path d="M6261.58 3413.54C6201.09 3365.25 6096.48 3273.95 6096.48 3273.95C6144.96 3260.75 6166.91 3254.78 6184.56 3195.42C6184.56 3195.42 6267.99 3251.22 6327.15 3301.69C6304.44 3337.28 6309.32 3315.64 6261.58 3413.54Z" fill="#4EBD7A"/>
<path d="M6259.3 3323.06C6313.9 3282.41 6408.07 3217.72 6408.07 3217.72C6459.92 3246.02 6473.01 3236.43 6532.51 3269.26C6532.51 3269.26 6432.9 3327.53 6375.7 3367.2C6302.74 3336.23 6351.61 3366 6259.3 3323.06Z" fill="#4EBD7A"/>
<path d="M6310.78 3308.44C6367.9 3347.53 6494 3424.11 6494 3424.11C6484.51 3450.67 6482.58 3455 6451.99 3515.76C6451.99 3515.76 6337.07 3428.52 6279.9 3387.23C6290.41 3353.07 6283.9 3371.33 6310.78 3308.44Z" fill="#4EBD7A"/>
<path d="M6277.12 3327.02C6224.19 3359.6 6106.07 3422.98 6106.07 3422.98C6119.14 3446.7 6121.66 3450.57 6160.59 3505.13C6160.59 3505.13 6265.98 3432 6318.68 3397.47C6303.59 3367.02 6312.56 3383.33 6277.12 3327.02Z" fill="#4EBD7A"/>
<path d="M6095.25 3174.59C6084.29 3178.3 6073.01 3190.02 6070.05 3200.78L6055.21 3254.62C6052.25 3265.37 6058.73 3271.08 6069.69 3267.36L6124.57 3248.77C6135.52 3245.06 6146.81 3233.33 6149.77 3222.58L6164.6 3168.74C6167.57 3157.99 6161.08 3152.28 6150.13 3156L6095.25 3174.59Z" fill="url(#paint12_linear)" fill-opacity="0.85"/>
<path d="M6200.81 3193.17L6163.15 3157.87L6147.25 3216.51C6143.56 3230.13 6132.83 3241.31 6118.95 3246.01L6057.59 3266.79L6096.9 3301.02C6102.3 3305.73 6110.11 3307.1 6117.3 3304.6L6177.5 3283.69C6184.49 3281.27 6189.84 3275.55 6191.58 3268.65L6206.02 3211.39C6207.71 3204.67 6205.74 3197.8 6200.81 3193.17Z" fill="#3D3E44"/>
<ellipse rx="25.817" ry="25.7379" transform="matrix(0.388213 -0.90711 0.939336 -0.385682 6108 3209.6)" fill="#C4C4C4"/>
<ellipse rx="17.5871" ry="17.5333" transform="matrix(0.388213 -0.90711 0.939336 -0.385682 6100.19 3202.47)" fill="#C4C4C4"/>
<path d="M6105.07 3191.05C6111.56 3188.39 6114.66 3191.32 6111.96 3197.63C6109.26 3203.95 6101.79 3211.22 6095.3 3213.89C6088.81 3216.55 6085.71 3213.62 6088.41 3207.3C6091.12 3200.98 6098.58 3193.71 6105.07 3191.05Z" stroke="black" stroke-opacity="0.2" stroke-width="10"/>
<path d="M6542.87 3194.61C6539.79 3184.48 6528.28 3174.66 6517.16 3172.66L6461.48 3162.68C6450.37 3160.69 6443.85 3167.28 6446.93 3177.41L6462.35 3228.14C6465.43 3238.27 6476.93 3248.09 6488.05 3250.09L6543.73 3260.07C6554.85 3262.06 6561.37 3255.47 6558.29 3245.34L6542.87 3194.61Z" fill="url(#paint13_linear)" fill-opacity="0.85"/>
<path d="M6515.19 3296.28L6555.35 3257.82L6494.65 3247.21C6480.55 3244.75 6469.56 3235.41 6465.66 3222.59L6448.42 3165.91L6409.26 3205.86C6403.88 3211.35 6401.84 3218.87 6403.92 3225.51L6421.39 3281.08C6423.42 3287.52 6429.05 3292.17 6436.2 3293.29L6495.56 3302.62C6502.52 3303.71 6509.93 3301.32 6515.19 3296.28Z" fill="#3D3E44"/>
<ellipse rx="24.4913" ry="24.6276" transform="matrix(0.972619 0.318117 0.348132 0.906901 6504.95 3209.41)" fill="#C4C4C4"/>
<ellipse rx="16.684" ry="16.7769" transform="matrix(0.972619 0.318117 0.348132 0.906901 6513.08 3201.44)" fill="#C4C4C4"/>
<path d="M6524.44 3205.16C6526.72 3211.08 6523.43 3214.16 6517.18 3212.12C6510.93 3210.08 6503.99 3203.65 6501.71 3197.72C6499.44 3191.8 6502.73 3188.71 6508.98 3190.76C6515.23 3192.8 6522.17 3199.23 6524.44 3205.16Z" stroke="black" stroke-opacity="0.2" stroke-width="10"/>
<path d="M6540.09 3497.42C6537.1 3507.82 6525.91 3519.37 6515.08 3523.21L6460.87 3542.45C6450.04 3546.3 6443.69 3540.98 6446.68 3530.58L6461.63 3478.47C6464.62 3468.07 6475.81 3456.52 6486.64 3452.68L6540.85 3433.43C6551.67 3429.59 6558.03 3434.91 6555.04 3445.31L6540.09 3497.42Z" fill="url(#paint14_linear)" fill-opacity="0.85"/>
<path d="M6513 3402.92L6552.12 3433.6L6493.07 3454.33C6479.36 3459.14 6468.67 3470.13 6464.9 3483.3L6448.18 3541.57L6410.04 3509.27C6404.79 3504.83 6402.79 3497.84 6404.82 3491.01L6421.75 3433.78C6423.71 3427.14 6429.18 3421.65 6436.14 3419.33L6493.89 3400.09C6500.66 3397.83 6507.87 3398.9 6513 3402.92Z" fill="#3D3E44"/>
<ellipse rx="25.4408" ry="25.3208" transform="matrix(0.917211 -0.456992 0.330992 -0.912905 6503.14 3489.46)" fill="#C4C4C4"/>
<ellipse rx="17.3309" ry="17.2491" transform="matrix(0.917211 -0.456992 0.330992 -0.912905 6511.06 3495.85)" fill="#C4C4C4"/>
<path d="M6522.37 3490.22C6524.6 3484.06 6521.38 3481.55 6515.11 3484.67C6508.85 3487.79 6501.98 3495.33 6499.75 3501.49C6497.52 3507.64 6500.74 3510.16 6507 3507.03C6513.27 3503.91 6520.14 3496.37 6522.37 3490.22Z" stroke="black" stroke-opacity="0.2" stroke-width="10"/>
<path d="M6086.88 3499.27C6089.88 3508.83 6100.58 3518.26 6110.78 3520.33L6161.86 3530.7C6172.06 3532.77 6177.9 3526.69 6174.9 3517.13L6159.89 3469.23C6156.9 3459.67 6146.2 3450.23 6136 3448.17L6084.92 3437.8C6074.72 3435.73 6068.88 3441.8 6071.87 3451.37L6086.88 3499.27Z" fill="url(#paint15_linear)" fill-opacity="0.85"/>
<path d="M6110.36 3404.3L6074.35 3439.69L6130.02 3450.74C6142.95 3453.31 6153.16 3462.27 6156.96 3474.38L6173.74 3527.9L6208.81 3491.1C6213.63 3486.04 6215.37 3479.02 6213.34 3472.75L6196.37 3420.26C6194.4 3414.17 6189.18 3409.71 6182.62 3408.52L6128.19 3398.7C6121.82 3397.55 6115.08 3399.66 6110.36 3404.3Z" fill="#3D3E44"/>
<ellipse rx="22.954" ry="23.0275" transform="matrix(-0.956096 -0.33658 -0.358338 -0.915967 6121.28 3486.05)" fill="#C4C4C4"/>
<ellipse rx="15.6368" ry="15.6869" transform="matrix(-0.956096 -0.33658 -0.358338 -0.915967 6114 3493.39)" fill="#C4C4C4"/>
<path d="M6103.83 3489.81C6101.71 3484.39 6104.56 3481.63 6110.17 3483.6C6115.77 3485.57 6122.05 3491.55 6124.17 3496.97C6126.29 3502.39 6123.43 3505.15 6117.83 3503.18C6112.22 3501.21 6105.95 3495.23 6103.83 3489.81Z" stroke="black" stroke-opacity="0.2" stroke-width="10"/>
<path d="M6259.79 3342.09V3194.73C6248.38 3169.02 6364.62 3168.26 6356.6 3193.49L6353.14 3342.09C6338.41 3359.92 6277.21 3361.34 6259.79 3342.09Z" fill="#50F090"/>
<path d="M6325.63 3126.13C6314.9 3120.67 6297.52 3120.75 6286.82 3126.3L6233.21 3154.1C6222.5 3159.65 6222.53 3168.57 6233.26 3174.02L6287.03 3201.33C6297.76 3206.78 6315.14 3206.7 6325.85 3201.15L6379.46 3173.35C6390.16 3167.8 6390.13 3158.88 6379.4 3153.43L6325.63 3126.13Z" fill="url(#paint16_linear)" fill-opacity="0.85"/>
<path d="M6385.56 3217.82L6387.13 3164.45L6328.94 3194.91C6315.42 3201.98 6298.86 3202.08 6285.27 3195.17L6225.15 3164.63L6225.61 3218.45C6225.68 3225.85 6230.11 3232.62 6237.21 3236.16L6296.61 3265.75C6303.5 3269.18 6311.86 3269.03 6318.62 3265.36L6374.68 3234.81C6381.25 3231.23 6385.36 3224.81 6385.56 3217.82Z" fill="#3D3E44"/>
<ellipse rx="27.4715" ry="27.3373" transform="matrix(0.941342 -0.344637 0.91675 0.393337 6306.65 3160.81)" fill="#C4C4C4"/>
<ellipse rx="18.7142" ry="18.6228" transform="matrix(0.941342 -0.344637 0.91675 0.393337 6306.81 3149.88)" fill="#C4C4C4"/>
<path d="M6319.72 3145.15C6326.6 3148.1 6326.45 3152.62 6319.3 3155.24C6312.15 3157.86 6300.78 3157.56 6293.9 3154.61C6287.03 3151.66 6287.17 3147.14 6294.32 3144.52C6301.48 3141.9 6312.85 3142.2 6319.72 3145.15Z" stroke="black" stroke-opacity="0.2" stroke-width="10"/>
<path d="M6278 2991V3117.79C6278 3135.03 6291.97 3149 6309.21 3149C6326.67 3149 6340.73 3134.67 6340.41 3117.21L6338.08 2991H6278Z" fill="#C4C4C4" fill-opacity="0.5"/>
<path d="M6285.01 3597.92C6293.25 3602.08 6307.05 3601.79 6315.84 3597.28L6359.85 3574.71C6368.64 3570.21 6369.09 3563.19 6360.85 3559.03L6319.58 3538.22C6311.34 3534.07 6297.53 3534.35 6288.74 3538.86L6244.73 3561.43C6235.94 3565.94 6235.5 3572.96 6243.74 3577.11L6285.01 3597.92Z" fill="url(#paint17_linear)" fill-opacity="0.6"/>
<path d="M6242.21 3526.52L6238.17 3568.56L6285.98 3543.82C6297.08 3538.07 6310.24 3537.78 6320.67 3543.04L6366.8 3566.3L6369.26 3523.93C6369.6 3518.11 6366.43 3512.83 6360.98 3510.14L6315.37 3487.62C6310.07 3485.01 6303.42 3485.24 6297.87 3488.22L6251.75 3513C6246.34 3515.91 6242.74 3521.01 6242.21 3526.52Z" fill="#3D3E44"/>
<ellipse rx="21.1132" ry="21.1132" transform="matrix(-0.994403 0.366118 -0.917198 -0.388317 6301.89 3570.37)" fill="#C4C4C4"/>
<ellipse rx="14.3828" ry="14.3828" transform="matrix(-0.994403 0.366118 -0.917198 -0.388317 6301.18 3578.98)" fill="#C4C4C4"/>
<path d="M6291.85 3582.42C6287.1 3580.4 6287.42 3577.23 6292.58 3575.34C6297.73 3573.44 6305.76 3573.53 6310.51 3575.55C6315.27 3577.56 6314.94 3580.73 6309.79 3582.62C6304.64 3584.52 6296.61 3584.43 6291.85 3582.42Z" stroke="black" stroke-opacity="0.2" stroke-width="10"/>
<path d="M4396.87 4841L4135 4997.55L4692.82 5102L4916 4918.47L4396.87 4841Z" fill="#1F1F1F" stroke="black"/>
<path d="M4521 4961.1C4593.31 4969.04 4629.42 4956.62 4656.87 4942.47C4669.84 4936.47 4682.6 4926.79 4688 4924V5027.36C4640.14 5080.37 4556.72 5060.95 4521 5044.62V4961.1Z" fill="black"/>
<path d="M4298.18 4878.78C4331.81 4933.18 4359.41 4952 4383.5 4963.92C4394.43 4969.89 4407.67 4973.85 4412.42 4976.19L4344.24 5028.82C4283.55 5022.47 4251.52 4954.49 4243.09 4921.3L4298.18 4878.78Z" fill="black"/>
<path d="M4593.51 4830.89L4665.33 4786.96C4684.93 4778.45 4736.81 4782.69 4736.81 4830.89L4654.03 4873.27L4764.91 4893.91C4795.79 4910.05 4793.71 4997.38 4740.1 5003.81C4740.1 5003.81 4588.19 4989.63 4559.85 4984.71L4511.62 5017C4467.73 5004.33 4385.78 4973.7 4409.09 4952.59C4415.81 4946.51 4420.02 4942.79 4422.48 4940.73L4467.56 4877.76V4646.49C4490 4633.29 4546.6 4614.82 4593.51 4646.49V4830.89Z" fill="#4EBD7A"/>
<path d="M4467.05 4832.87V4651.31C4451.81 4619.63 4607.18 4618.69 4596.47 4649.78L4591.84 4832.87C4572.15 4854.83 4490.35 4856.58 4467.05 4832.87Z" fill="#50F090"/>
<path d="M4182.71 4676.44L4087.46 4735.09L4007.9 4676.45L4009.23 4694.17L3981.38 4710.81L3919.74 4660.45L3912.23 4606L3935.77 4586.84L3969.05 4617.09L3974.39 4557.82L4070.88 4494.16L4182.93 4576.67L4182.71 4676.44Z" fill="#494747"/>
<path d="M4087.46 4735.09L4182.71 4676.44L4182.93 4576.67M4087.46 4735.09L4086.44 4640.33M4087.46 4735.09L4007.9 4676.45M4182.93 4576.67L4070.88 4494.16L3974.39 4557.82M4182.93 4576.67L4086.44 4640.33M3974.39 4557.82L4086.44 4640.33M3974.39 4557.82L3969.05 4617.09M4007.9 4676.45L4009.23 4694.17L3981.38 4710.81M4007.9 4676.45L4002.86 4668.52M3981.38 4710.81L3919.74 4660.45L3912.23 4606M3981.38 4710.81L3978.39 4678.86M3912.23 4606L3935.77 4586.84L3969.05 4617.09M3912.23 4606L3940.85 4626.35M3969.05 4617.09L4002.86 4668.52M3969.05 4617.09L3940.85 4626.35M4002.86 4668.52L3978.39 4678.86M3978.39 4678.86L3940.85 4626.35" stroke="#C4C4C4" stroke-opacity="0.29" stroke-width="5"/>
<path d="M4488.28 5323L4668 5383.37L4635.26 5493.28L4573.72 5573L4384.83 5514.93L4339 5500.49L4358.31 5427.99L4392.03 5383.37L4424.85 5394.19L4488.28 5323Z" fill="#494747"/>
<path d="M4406.44 5414.86L4400.2 5443.73M4406.44 5414.86L4424.85 5394.19M4406.44 5414.86L4597.94 5470.31M4668 5383.37L4488.28 5323L4424.85 5394.19M4668 5383.37L4603.84 5473.92L4573.72 5573M4668 5383.37L4635.26 5493.28L4573.72 5573M4573.72 5573L4384.83 5514.93M4384.83 5514.93L4400.2 5443.73M4384.83 5514.93L4339 5500.49L4358.31 5427.99M4358.31 5427.99L4400.2 5443.73M4358.31 5427.99L4392.03 5383.37L4424.85 5394.19" stroke="#C4C4C4" stroke-opacity="0.29" stroke-width="5"/>
<path d="M3891.02 5304.94L3905.03 5224.39L4059.85 5225.48C4060.48 5246.45 4059.61 5285.83 4051.12 5275.66L4055.29 5292.9L4105.07 5294.18L4102.23 5341.7L4109.57 5394.46L3987.37 5397.09L3920.81 5398.54L3891.02 5304.94Z" fill="#494747"/>
<path d="M3891.02 5304.94L3905.03 5224.39L4059.85 5225.48C4060.48 5246.45 4059.61 5285.83 4051.12 5275.66M3891.02 5304.94L3988.17 5308.81M3891.02 5304.94L3920.81 5398.54L3987.37 5397.09M3988.17 5308.81C4005.61 5293.52 4042.62 5265.5 4051.12 5275.66M3988.17 5308.81L3981.93 5344.65M4051.12 5275.66L4055.29 5292.9L4105.07 5294.18L4102.23 5341.7M3987.37 5397.09L3979.14 5360.68L3981.93 5344.65M3987.37 5397.09L4109.57 5394.46L4102.23 5341.7M4102.23 5341.7L3981.93 5344.65" stroke="#C4C4C4" stroke-opacity="0.29" stroke-width="5"/>
<path d="M4967.07 4717.88L5047.25 4709.94L5057.41 4557.81C5036.85 4555.68 4998.08 4553.68 5007.46 4562.76L4990.82 4557.41L4993.17 4508.42L4946.27 4507.77L4894.94 4496.74L4883.49 4616.58L4877.23 4681.84L4967.07 4717.88Z" fill="#494747"/>
<path d="M4967.07 4717.88L5047.25 4709.94L5057.41 4557.81C5036.85 4555.68 4998.08 4553.68 5007.46 4562.76M4967.07 4717.88L4970.31 4622.18M4967.07 4717.88L4877.23 4681.84L4883.49 4616.58M4970.31 4622.18C4986.6 4606.15 5016.83 4571.83 5007.46 4562.76M4970.31 4622.18L4934.63 4625.71M5007.46 4562.76L4990.82 4557.41L4993.17 4508.42L4946.27 4507.77M4883.49 4616.58L4918.68 4627.29L4934.63 4625.71M4883.49 4616.58L4894.94 4496.74L4946.27 4507.77M4946.27 4507.77L4934.63 4625.71" stroke="#C4C4C4" stroke-opacity="0.29" stroke-width="5"/>
<path d="M4936.28 5416.96L4980.26 5497.57L5144.42 5440.6C5137.51 5418.08 5122.37 5376.5 5117.02 5390.37L5115.23 5370.54L5167.68 5351.23L5147.51 5301.72L5136.26 5242.96L5005.43 5284.22L4934.16 5306.67L4936.28 5416.96Z" fill="#494747"/>
<path d="M4936.28 5416.96L4980.26 5497.57L5144.42 5440.6C5137.51 5418.08 5122.37 5376.5 5117.02 5390.37M4936.28 5416.96L5038.15 5377.82M4936.28 5416.96L4934.16 5306.67L5005.43 5284.22M5038.15 5377.82C5062.2 5387.78 5111.66 5404.25 5117.02 5390.37M5038.15 5377.82L5018.57 5341.94M5117.02 5390.37L5115.23 5370.54L5167.68 5351.23L5147.51 5301.72M5005.43 5284.22L5009.82 5325.9L5018.57 5341.94M5005.43 5284.22L5136.26 5242.96L5147.51 5301.72M5147.51 5301.72L5018.57 5341.94" stroke="#C4C4C4" stroke-opacity="0.29" stroke-width="5"/>
<path d="M4137 4995.75V5168.95L4290.46 5202.42V5025.04L4137 4995.75Z" fill="#494747"/>
<path d="M4290.46 5025.04V5202.42L4491.21 5246.21V5063.34L4290.46 5025.04Z" fill="#494747"/>
<path d="M4691.96 5101.65L4491.21 5063.34V5246.21L4691.96 5290V5101.65Z" fill="#494747"/>
<path d="M4691.96 5101.65V5290L4776.29 5210.3V5033.26L4691.96 5101.65Z" fill="#494747"/>
<path d="M4776.29 5033.26V5210.3L4858.91 5132.23V4966.27L4776.29 5033.26Z" fill="#494747"/>
<path d="M4918 5076.39V4918.35L4858.91 4966.27V5132.23L4918 5076.39Z" fill="#494747"/>
<path d="M4137 4995.75V5168.95L4290.46 5202.42M4137 4995.75L4290.46 5025.04M4137 4995.75L4405.51 4846L4918 4918.35M4691.96 5290L4491.21 5246.21M4691.96 5290V5101.65M4691.96 5290L4776.29 5210.3M4918 4918.35V5076.39L4858.91 5132.23M4918 4918.35L4858.91 4966.27M4691.96 5101.65L4491.21 5063.34M4691.96 5101.65L4776.29 5033.26M4290.46 5025.04V5202.42M4290.46 5025.04L4491.21 5063.34M4290.46 5202.42L4491.21 5246.21M4491.21 5063.34V5246.21M4776.29 5033.26V5210.3M4776.29 5033.26L4858.91 4966.27M4776.29 5210.3L4858.91 5132.23M4858.91 4966.27V5132.23" stroke="#C4C4C4" stroke-opacity="0.29" stroke-width="5"/>
<path d="M4687.81 5025.56L4680.04 4853.13L4773.86 4805.66L4855.34 4812.58L4856.49 4971.59L4773.86 5032.82L4687.81 5025.56Z" fill="#494747"/>
<path d="M4680.04 4853.13L4687.81 5025.56L4773.86 5032.82M4680.04 4853.13L4773.86 4805.66L4855.34 4812.58M4680.04 4853.13L4766.09 4860.39M4773.86 5032.82L4856.49 4971.59L4855.34 4812.58M4773.86 5032.82L4766.09 4860.39M4855.34 4812.58L4766.09 4860.39" stroke="#C4C4C4" stroke-opacity="0.29" stroke-width="5"/>
<path d="M4222 4943.79V4794.67L4341.13 4761L4435 4767.05V4908.05L4311.66 4953L4222 4943.79Z" fill="#494747"/>
<path d="M4222 4794.67V4943.79L4311.66 4953M4222 4794.67L4320.08 4801.81M4222 4794.67L4341.13 4761L4435 4767.05M4311.66 4953L4320.08 4801.81M4311.66 4953L4435 4908.05V4767.05M4320.08 4801.81L4435 4767.05" stroke="#C4C4C4" stroke-opacity="0.29" stroke-width="5"/>
<path d="M4291 5027.88V4847.36L4348.01 4822L4534 4840.21V5040.56L4491.01 5062L4291 5027.88Z" fill="#494747"/>
<path d="M4291 4847.36V5027.88L4491.01 5062M4291 4847.36L4348.01 4822L4534 4840.21M4291 4847.36L4491.01 4866.73M4491.01 5062L4534 5040.56V4840.21M4491.01 5062V4866.73M4534 4840.21L4491.01 4866.73" stroke="#C4C4C4" stroke-opacity="0.29" stroke-width="5"/>
<path d="M4413 4733.8V4619.6L4514.58 4593L4667 4606.3V4718.6C4617.93 4706.44 4591.67 4733.8 4584.67 4749C4539.8 4723.16 4451.53 4728.1 4413 4733.8Z" fill="#494747"/>
<path d="M4413 4619.6V4733.8C4451.53 4728.1 4539.8 4723.16 4584.67 4749M4413 4619.6L4584.67 4636.7M4413 4619.6L4514.58 4593L4667 4606.3M4584.67 4749C4591.67 4733.8 4617.93 4706.44 4667 4718.6V4606.3M4584.67 4749V4636.7M4667 4606.3L4584.67 4636.7" stroke="#C4C4C4" stroke-opacity="0.29" stroke-width="5"/>
<defs>
<filter id="filter0_d" x="3473.02" y="4475.35" width="227.617" height="197.562" filterUnits="userSpaceOnUse" color-interpolation-filters="sRGB">
<feFlood flood-opacity="0" result="BackgroundImageFix"/>
<feColorMatrix in="SourceAlpha" type="matrix" values="0 0 0 0 0 0 0 0 0 0 0 0 0 0 0 0 0 0 127 0"/>
<feOffset dy="20"/>
<feGaussianBlur stdDeviation="2"/>
<feColorMatrix type="matrix" values="0 0 0 0 0.229167 0 0 0 0 0.229167 0 0 0 0 0.229167 0 0 0 0.5 0"/>
<feBlend mode="normal" in2="BackgroundImageFix" result="effect1_dropShadow"/>
<feBlend mode="normal" in="SourceGraphic" in2="effect1_dropShadow" result="shape"/>
</filter>
<filter id="filter1_d" x="2455.21" y="4506.7" width="238.116" height="240.151" filterUnits="userSpaceOnUse" color-interpolation-filters="sRGB">
<feFlood flood-opacity="0" result="BackgroundImageFix"/>
<feColorMatrix in="SourceAlpha" type="matrix" values="0 0 0 0 0 0 0 0 0 0 0 0 0 0 0 0 0 0 127 0"/>
<feOffset dy="20"/>
<feGaussianBlur stdDeviation="2"/>
<feColorMatrix type="matrix" values="0 0 0 0 0.229167 0 0 0 0 0.229167 0 0 0 0 0.229167 0 0 0 0.5 0"/>
<feBlend mode="normal" in2="BackgroundImageFix" result="effect1_dropShadow"/>
<feBlend mode="normal" in="SourceGraphic" in2="effect1_dropShadow" result="shape"/>
</filter>
<filter id="filter2_d" x="3418.54" y="5134.63" width="219.124" height="230.442" filterUnits="userSpaceOnUse" color-interpolation-filters="sRGB">
<feFlood flood-opacity="0" result="BackgroundImageFix"/>
<feColorMatrix in="SourceAlpha" type="matrix" values="0 0 0 0 0 0 0 0 0 0 0 0 0 0 0 0 0 0 127 0"/>
<feOffset dy="-20"/>
<feGaussianBlur stdDeviation="2"/>
<feColorMatrix type="matrix" values="0 0 0 0 0.229167 0 0 0 0 0.229167 0 0 0 0 0.229167 0 0 0 0.5 0"/>
<feBlend mode="normal" in2="BackgroundImageFix" result="effect1_dropShadow"/>
<feBlend mode="normal" in="SourceGraphic" in2="effect1_dropShadow" result="shape"/>
</filter>
<filter id="filter3_d" x="2499.12" y="5149.84" width="247.117" height="200.023" filterUnits="userSpaceOnUse" color-interpolation-filters="sRGB">
<feFlood flood-opacity="0" result="BackgroundImageFix"/>
<feColorMatrix in="SourceAlpha" type="matrix" values="0 0 0 0 0 0 0 0 0 0 0 0 0 0 0 0 0 0 127 0"/>
<feOffset dy="-20"/>
<feGaussianBlur stdDeviation="2"/>
<feColorMatrix type="matrix" values="0 0 0 0 0.229167 0 0 0 0 0.229167 0 0 0 0 0.229167 0 0 0 0.5 0"/>
<feBlend mode="normal" in2="BackgroundImageFix" result="effect1_dropShadow"/>
<feBlend mode="normal" in="SourceGraphic" in2="effect1_dropShadow" result="shape"/>
</filter>
<filter id="filter4_d" x="2913.61" y="5396.65" width="302.458" height="108.1" filterUnits="userSpaceOnUse" color-interpolation-filters="sRGB">
<feFlood flood-opacity="0" result="BackgroundImageFix"/>
<feColorMatrix in="SourceAlpha" type="matrix" values="0 0 0 0 0 0 0 0 0 0 0 0 0 0 0 0 0 0 127 0"/>
<feOffset dy="-20"/>
<feGaussianBlur stdDeviation="2"/>
<feColorMatrix type="matrix" values="0 0 0 0 0.229167 0 0 0 0 0.229167 0 0 0 0 0.229167 0 0 0 0.5 0"/>
<feBlend mode="normal" in2="BackgroundImageFix" result="effect1_dropShadow"/>
<feBlend mode="normal" in="SourceGraphic" in2="effect1_dropShadow" result="shape"/>
</filter>
<filter id="filter5_d" x="2931.12" y="4412.28" width="304.436" height="110.458" filterUnits="userSpaceOnUse" color-interpolation-filters="sRGB">
<feFlood flood-opacity="0" result="BackgroundImageFix"/>
<feColorMatrix in="SourceAlpha" type="matrix" values="0 0 0 0 0 0 0 0 0 0 0 0 0 0 0 0 0 0 127 0"/>
<feOffset dy="20"/>
<feGaussianBlur stdDeviation="2"/>
<feColorMatrix type="matrix" values="0 0 0 0 0.229167 0 0 0 0 0.229167 0 0 0 0 0.229167 0 0 0 0.5 0"/>
<feBlend mode="normal" in2="BackgroundImageFix" result="effect1_dropShadow"/>
<feBlend mode="normal" in="SourceGraphic" in2="effect1_dropShadow" result="shape"/>
</filter>
<linearGradient id="paint0_linear" x1="4854.8" y1="3343.91" x2="4985.02" y2="3362.61" gradientUnits="userSpaceOnUse">
<stop stop-color="#8A8383"/>
<stop offset="1" stop-color="#3D3E44"/>
</linearGradient>
<linearGradient id="paint1_linear" x1="4854.8" y1="3459.19" x2="4985.02" y2="3477.89" gradientUnits="userSpaceOnUse">
<stop stop-color="#8A8383"/>
<stop offset="1" stop-color="#3D3E44"/>
</linearGradient>
<linearGradient id="paint2_linear" x1="4857.41" y1="3581.68" x2="4987.64" y2="3600.38" gradientUnits="userSpaceOnUse">
<stop stop-color="#8A8383"/>
<stop offset="1" stop-color="#3D3E44"/>
</linearGradient>
<linearGradient id="paint3_linear" x1="5034.27" y1="3393.04" x2="5164.49" y2="3411.74" gradientUnits="userSpaceOnUse">
<stop stop-color="#8A8383"/>
<stop offset="1" stop-color="#3D3E44"/>
</linearGradient>
<linearGradient id="paint4_linear" x1="5034.27" y1="3508.32" x2="5164.49" y2="3527.02" gradientUnits="userSpaceOnUse">
<stop stop-color="#8A8383"/>
<stop offset="1" stop-color="#3D3E44"/>
</linearGradient>
<linearGradient id="paint5_linear" x1="5036.89" y1="3630.8" x2="5167.11" y2="3649.51" gradientUnits="userSpaceOnUse">
<stop stop-color="#8A8383"/>
<stop offset="1" stop-color="#3D3E44"/>
</linearGradient>
<linearGradient id="paint6_linear" x1="2644.9" y1="4711.78" x2="2813.36" y2="4581.12" gradientUnits="userSpaceOnUse">
<stop stop-color="#8A8383"/>
<stop offset="1" stop-color="#3D3E44"/>
</linearGradient>
<linearGradient id="paint7_linear" x1="3428.46" y1="4569.01" x2="3550.44" y2="4736.15" gradientUnits="userSpaceOnUse">
<stop stop-color="#8A8383"/>
<stop offset="1" stop-color="#3D3E44"/>
</linearGradient>
<linearGradient id="paint8_linear" x1="3391.71" y1="5247.53" x2="3491.49" y2="5067.73" gradientUnits="userSpaceOnUse">
<stop stop-color="#8A8383"/>
<stop offset="1" stop-color="#3D3E44"/>
</linearGradient>
<linearGradient id="paint9_linear" x1="2774.28" y1="5234.68" x2="2664.4" y2="5086.29" gradientUnits="userSpaceOnUse">
<stop stop-color="#8A8383"/>
<stop offset="1" stop-color="#3D3E44"/>
</linearGradient>
<linearGradient id="paint10_linear" x1="3137.55" y1="5370.11" x2="2944.99" y2="5319.93" gradientUnits="userSpaceOnUse">
<stop stop-color="#8A8383"/>
<stop offset="1" stop-color="#3D3E44"/>
</linearGradient>
<linearGradient id="paint11_linear" x1="2999.42" y1="4553.27" x2="3210.98" y2="4594.23" gradientUnits="userSpaceOnUse">
<stop stop-color="#8A8383"/>
<stop offset="1" stop-color="#3D3E44"/>
</linearGradient>
<linearGradient id="paint12_linear" x1="6062.63" y1="3227.7" x2="6158.58" y2="3153.28" gradientUnits="userSpaceOnUse">
<stop stop-color="#8A8383"/>
<stop offset="1" stop-color="#3D3E44"/>
</linearGradient>
<linearGradient id="paint13_linear" x1="6489.32" y1="3167.67" x2="6554.77" y2="3257.34" gradientUnits="userSpaceOnUse">
<stop stop-color="#8A8383"/>
<stop offset="1" stop-color="#3D3E44"/>
</linearGradient>
<linearGradient id="paint14_linear" x1="6487.97" y1="3532.83" x2="6544.81" y2="3430.43" gradientUnits="userSpaceOnUse">
<stop stop-color="#8A8383"/>
<stop offset="1" stop-color="#3D3E44"/>
</linearGradient>
<linearGradient id="paint15_linear" x1="6136.32" y1="3525.51" x2="6073.74" y2="3441" gradientUnits="userSpaceOnUse">
<stop stop-color="#8A8383"/>
<stop offset="1" stop-color="#3D3E44"/>
</linearGradient>
<linearGradient id="paint16_linear" x1="6260.01" y1="3140.2" x2="6386.22" y2="3164.64" gradientUnits="userSpaceOnUse">
<stop stop-color="#8A8383"/>
<stop offset="1" stop-color="#3D3E44"/>
</linearGradient>
<linearGradient id="paint17_linear" x1="6337.85" y1="3586" x2="6240.89" y2="3560.73" gradientUnits="userSpaceOnUse">
<stop stop-color="#8A8383"/>
<stop offset="1" stop-color="#3D3E44"/>
</linearGradient>
</defs>
</svg>
